<?xml version="1.0" encoding="UTF-8" standalone="no"?>
<svg
   width="128"
   zoomAndPan="magnify"
   viewBox="0 0 96.000024 96.000024"
   height="128"
   preserveAspectRatio="xMidYMid"
   version="1.2"
   id="svg147"
   xml:space="preserve"
   xmlns="http://www.w3.org/2000/svg"
   xmlns:svg="http://www.w3.org/2000/svg"><defs
     id="defs73"><clipPath
       id="822fa667aa"><path
         d="M 131,179 H 255.49219 V 297.91406 H 131 Z m 0,0"
         id="path2" /></clipPath><clipPath
       id="505ed0d9b9"><path
         d="m 333.69922,191.95312 c 0,49.44141 -25.3086,92.96485 -63.6836,118.32422 -22.38281,14.80078 -49.21484,23.42188 -78.0625,23.42188 -28.85156,0 -55.68359,-8.6211 -78.0664,-23.42188 -38.367189,-25.35937 -63.675782,-68.89062 -63.675782,-118.32422 0,-78.28515 63.457032,-141.742182 141.746092,-141.742182 78.28516,0 141.74219,63.457032 141.74219,141.742182 z m 0,0"
         id="path3" /></clipPath><clipPath
       id="283388eee3"><path
         d="M 129.13672,176.07031 H 258 V 299.71875 H 129.13672 Z m 0,0"
         id="path4" /></clipPath><clipPath
       id="985fabbb86"><path
         d="m 333.69922,191.95312 c 0,49.44141 -25.3086,92.96485 -63.6836,118.32422 -22.38281,14.80078 -49.21484,23.42188 -78.0625,23.42188 -28.85156,0 -55.68359,-8.6211 -78.0664,-23.42188 -38.367189,-25.35937 -63.675782,-68.89062 -63.675782,-118.32422 0,-78.28515 63.457032,-141.742182 141.746092,-141.742182 78.28516,0 141.74219,63.457032 141.74219,141.742182 z m 0,0"
         id="path5" /></clipPath><clipPath
       id="f1fdeeb651"><path
         d="m 109,255 h 166 v 79 H 109 Z m 0,0"
         id="path6" /></clipPath><clipPath
       id="bbd9c9f5f1"><path
         d="m 333.69922,191.95312 c 0,49.44141 -25.3086,92.96485 -63.6836,118.32422 -22.38281,14.80078 -49.21484,23.42188 -78.0625,23.42188 -28.85156,0 -55.68359,-8.6211 -78.0664,-23.42188 -38.367189,-25.35937 -63.675782,-68.89062 -63.675782,-118.32422 0,-78.28515 63.457032,-141.742182 141.746092,-141.742182 78.28516,0 141.74219,63.457032 141.74219,141.742182 z m 0,0"
         id="path7" /></clipPath><clipPath
       id="2732710d20"><path
         d="M 107,252.78516 H 277 V 334 H 107 Z m 0,0"
         id="path8" /></clipPath><clipPath
       id="973388e6ba"><path
         d="m 333.69922,191.95312 c 0,49.44141 -25.3086,92.96485 -63.6836,118.32422 -22.38281,14.80078 -49.21484,23.42188 -78.0625,23.42188 -28.85156,0 -55.68359,-8.6211 -78.0664,-23.42188 -38.367189,-25.35937 -63.675782,-68.89062 -63.675782,-118.32422 0,-78.28515 63.457032,-141.742182 141.746092,-141.742182 78.28516,0 141.74219,63.457032 141.74219,141.742182 z m 0,0"
         id="path9" /></clipPath><clipPath
       id="65ab46cb5a"><path
         d="m 146.28516,255 h 91.15625 v 53.74219 h -91.15625 z m 0,0"
         id="path10" /></clipPath><clipPath
       id="c1140c3044"><path
         d="m 333.69922,191.95312 c 0,49.44141 -25.3086,92.96485 -63.6836,118.32422 -22.38281,14.80078 -49.21484,23.42188 -78.0625,23.42188 -28.85156,0 -55.68359,-8.6211 -78.0664,-23.42188 -38.367189,-25.35937 -63.675782,-68.89062 -63.675782,-118.32422 0,-78.28515 63.457032,-141.742182 141.746092,-141.742182 78.28516,0 141.74219,63.457032 141.74219,141.742182 z m 0,0"
         id="path11" /></clipPath><clipPath
       id="65a6928e86"><path
         d="m 144,252.78516 h 96 v 57.76171 h -96 z m 0,0"
         id="path12" /></clipPath><clipPath
       id="826a9cd6f1"><path
         d="m 333.69922,191.95312 c 0,49.44141 -25.3086,92.96485 -63.6836,118.32422 -22.38281,14.80078 -49.21484,23.42188 -78.0625,23.42188 -28.85156,0 -55.68359,-8.6211 -78.0664,-23.42188 -38.367189,-25.35937 -63.675782,-68.89062 -63.675782,-118.32422 0,-78.28515 63.457032,-141.742182 141.746092,-141.742182 78.28516,0 141.74219,63.457032 141.74219,141.742182 z m 0,0"
         id="path13" /></clipPath><clipPath
       id="48d1be8bb1"><path
         d="m 171.55859,214 h 40.61328 v 76.69141 h -40.61328 z m 0,0"
         id="path14" /></clipPath><clipPath
       id="f4fd9df7bf"><path
         d="m 333.69922,191.95312 c 0,49.44141 -25.3086,92.96485 -63.6836,118.32422 -22.38281,14.80078 -49.21484,23.42188 -78.0625,23.42188 -28.85156,0 -55.68359,-8.6211 -78.0664,-23.42188 -38.367189,-25.35937 -63.675782,-68.89062 -63.675782,-118.32422 0,-78.28515 63.457032,-141.742182 141.746092,-141.742182 78.28516,0 141.74219,63.457032 141.74219,141.742182 z m 0,0"
         id="path15" /></clipPath><clipPath
       id="1700d177cc"><path
         d="m 169,211.26953 h 45.87891 V 293 H 169 Z m 0,0"
         id="path16" /></clipPath><clipPath
       id="aceb4676e1"><path
         d="m 333.69922,191.95312 c 0,49.44141 -25.3086,92.96485 -63.6836,118.32422 -22.38281,14.80078 -49.21484,23.42188 -78.0625,23.42188 -28.85156,0 -55.68359,-8.6211 -78.0664,-23.42188 -38.367189,-25.35937 -63.675782,-68.89062 -63.675782,-118.32422 0,-78.28515 63.457032,-141.742182 141.746092,-141.742182 78.28516,0 141.74219,63.457032 141.74219,141.742182 z m 0,0"
         id="path17" /></clipPath><clipPath
       id="9a7dcbd0a0"><path
         d="m 238.34375,181 h 22.56641 v 36.58594 h -22.56641 z m 0,0"
         id="path18" /></clipPath><clipPath
       id="dd2243c8a5"><path
         d="m 333.69922,191.95312 c 0,49.44141 -25.3086,92.96485 -63.6836,118.32422 -22.38281,14.80078 -49.21484,23.42188 -78.0625,23.42188 -28.85156,0 -55.68359,-8.6211 -78.0664,-23.42188 -38.367189,-25.35937 -63.675782,-68.89062 -63.675782,-118.32422 0,-78.28515 63.457032,-141.742182 141.746092,-141.742182 78.28516,0 141.74219,63.457032 141.74219,141.742182 z m 0,0"
         id="path19" /></clipPath><clipPath
       id="73ce9e5d37"><path
         d="m 236.53906,178.77734 h 26.17578 v 40.61328 h -26.17578 z m 0,0"
         id="path20" /></clipPath><clipPath
       id="a7eba05e58"><path
         d="m 333.69922,191.95312 c 0,49.44141 -25.3086,92.96485 -63.6836,118.32422 -22.38281,14.80078 -49.21484,23.42188 -78.0625,23.42188 -28.85156,0 -55.68359,-8.6211 -78.0664,-23.42188 -38.367189,-25.35937 -63.675782,-68.89062 -63.675782,-118.32422 0,-78.28515 63.457032,-141.742182 141.746092,-141.742182 78.28516,0 141.74219,63.457032 141.74219,141.742182 z m 0,0"
         id="path21" /></clipPath><clipPath
       id="09da38ff74"><path
         d="m 126,181 h 22 v 36.58594 h -22 z m 0,0"
         id="path22" /></clipPath><clipPath
       id="9b06f4802e"><path
         d="m 333.69922,191.95312 c 0,49.44141 -25.3086,92.96485 -63.6836,118.32422 -22.38281,14.80078 -49.21484,23.42188 -78.0625,23.42188 -28.85156,0 -55.68359,-8.6211 -78.0664,-23.42188 -38.367189,-25.35937 -63.675782,-68.89062 -63.675782,-118.32422 0,-78.28515 63.457032,-141.742182 141.746092,-141.742182 78.28516,0 141.74219,63.457032 141.74219,141.742182 z m 0,0"
         id="path23" /></clipPath><clipPath
       id="e5634883ca"><path
         d="m 123.72266,178.77734 h 26.17578 v 40.61328 h -26.17578 z m 0,0"
         id="path24" /></clipPath><clipPath
       id="e74e1b4131"><path
         d="m 333.69922,191.95312 c 0,49.44141 -25.3086,92.96485 -63.6836,118.32422 -22.38281,14.80078 -49.21484,23.42188 -78.0625,23.42188 -28.85156,0 -55.68359,-8.6211 -78.0664,-23.42188 -38.367189,-25.35937 -63.675782,-68.89062 -63.675782,-118.32422 0,-78.28515 63.457032,-141.742182 141.746092,-141.742182 78.28516,0 141.74219,63.457032 141.74219,141.742182 z m 0,0"
         id="path25" /></clipPath><clipPath
       id="68f844daea"><path
         d="M 136,118.30859 H 250.98047 V 252.78516 H 136 Z m 0,0"
         id="path26" /></clipPath><clipPath
       id="dfdccef51c"><path
         d="m 333.69922,191.95312 c 0,49.44141 -25.3086,92.96485 -63.6836,118.32422 -22.38281,14.80078 -49.21484,23.42188 -78.0625,23.42188 -28.85156,0 -55.68359,-8.6211 -78.0664,-23.42188 -38.367189,-25.35937 -63.675782,-68.89062 -63.675782,-118.32422 0,-78.28515 63.457032,-141.742182 141.746092,-141.742182 78.28516,0 141.74219,63.457032 141.74219,141.742182 z m 0,0"
         id="path27" /></clipPath><clipPath
       id="fbf18e2472"><path
         d="M 134,116.50391 H 252.78516 V 254.58984 H 134 Z m 0,0"
         id="path28" /></clipPath><clipPath
       id="196e6ea0b2"><path
         d="m 333.69922,191.95312 c 0,49.44141 -25.3086,92.96485 -63.6836,118.32422 -22.38281,14.80078 -49.21484,23.42188 -78.0625,23.42188 -28.85156,0 -55.68359,-8.6211 -78.0664,-23.42188 -38.367189,-25.35937 -63.675782,-68.89062 -63.675782,-118.32422 0,-78.28515 63.457032,-141.742182 141.746092,-141.742182 78.28516,0 141.74219,63.457032 141.74219,141.742182 z m 0,0"
         id="path29" /></clipPath><clipPath
       id="54935d12e7"><path
         d="M 202.24219,170 H 241 v 10.58203 h -38.75781 z m 0,0"
         id="path30" /></clipPath><clipPath
       id="b095865d30"><path
         d="m 333.69922,191.95312 c 0,49.44141 -25.3086,92.96485 -63.6836,118.32422 -22.38281,14.80078 -49.21484,23.42188 -78.0625,23.42188 -28.85156,0 -55.68359,-8.6211 -78.0664,-23.42188 -38.367189,-25.35937 -63.675782,-68.89062 -63.675782,-118.32422 0,-78.28515 63.457032,-141.742182 141.746092,-141.742182 78.28516,0 141.74219,63.457032 141.74219,141.742182 z m 0,0"
         id="path31" /></clipPath><clipPath
       id="7e3de4f690"><path
         d="m 209,182.38672 h 24.83203 v 8.125 H 209 Z m 0,0"
         id="path32" /></clipPath><clipPath
       id="532136057a"><path
         d="m 333.69922,191.95312 c 0,49.44141 -25.3086,92.96485 -63.6836,118.32422 -22.38281,14.80078 -49.21484,23.42188 -78.0625,23.42188 -28.85156,0 -55.68359,-8.6211 -78.0664,-23.42188 -38.367189,-25.35937 -63.675782,-68.89062 -63.675782,-118.32422 0,-78.28515 63.457032,-141.742182 141.746092,-141.742182 78.28516,0 141.74219,63.457032 141.74219,141.742182 z m 0,0"
         id="path33" /></clipPath><clipPath
       id="033b21d336"><path
         d="m 150,182.38672 h 25 v 8.125 h -25 z m 0,0"
         id="path34" /></clipPath><clipPath
       id="c37cd2b9d9"><path
         d="m 333.69922,191.95312 c 0,49.44141 -25.3086,92.96485 -63.6836,118.32422 -22.38281,14.80078 -49.21484,23.42188 -78.0625,23.42188 -28.85156,0 -55.68359,-8.6211 -78.0664,-23.42188 -38.367189,-25.35937 -63.675782,-68.89062 -63.675782,-118.32422 0,-78.28515 63.457032,-141.742182 141.746092,-141.742182 78.28516,0 141.74219,63.457032 141.74219,141.742182 z m 0,0"
         id="path35" /></clipPath><clipPath
       id="99261936f3"><path
         d="m 143,170 h 38.48437 v 10 H 143 Z m 0,0"
         id="path36" /></clipPath><clipPath
       id="3489df88b6"><path
         d="m 333.69922,191.95312 c 0,49.44141 -25.3086,92.96485 -63.6836,118.32422 -22.38281,14.80078 -49.21484,23.42188 -78.0625,23.42188 -28.85156,0 -55.68359,-8.6211 -78.0664,-23.42188 -38.367189,-25.35937 -63.675782,-68.89062 -63.675782,-118.32422 0,-78.28515 63.457032,-141.742182 141.746092,-141.742182 78.28516,0 141.74219,63.457032 141.74219,141.742182 z m 0,0"
         id="path37" /></clipPath><clipPath
       id="91f2f6ae0a"><path
         d="m 187,211.26953 h 11.63281 v 5.41406 H 187 Z m 0,0"
         id="path38" /></clipPath><clipPath
       id="f0a7091be9"><path
         d="m 333.69922,191.95312 c 0,49.44141 -25.3086,92.96485 -63.6836,118.32422 -22.38281,14.80078 -49.21484,23.42188 -78.0625,23.42188 -28.85156,0 -55.68359,-8.6211 -78.0664,-23.42188 -38.367189,-25.35937 -63.675782,-68.89062 -63.675782,-118.32422 0,-78.28515 63.457032,-141.742182 141.746092,-141.742182 78.28516,0 141.74219,63.457032 141.74219,141.742182 z m 0,0"
         id="path39" /></clipPath><clipPath
       id="a65de465dd"><path
         d="m 179.67969,220.29297 h 25.27343 V 227 h -25.27343 z m 0,0"
         id="path40" /></clipPath><clipPath
       id="c694a72276"><path
         d="m 333.69922,191.95312 c 0,49.44141 -25.3086,92.96485 -63.6836,118.32422 -22.38281,14.80078 -49.21484,23.42188 -78.0625,23.42188 -28.85156,0 -55.68359,-8.6211 -78.0664,-23.42188 -38.367189,-25.35937 -63.675782,-68.89062 -63.675782,-118.32422 0,-78.28515 63.457032,-141.742182 141.746092,-141.742182 78.28516,0 141.74219,63.457032 141.74219,141.742182 z m 0,0"
         id="path41" /></clipPath><clipPath
       id="8c21af00ed"><path
         d="M 213.07422,185.09375 H 224 v 16.24609 h -10.92578 z m 0,0"
         id="path42" /></clipPath><clipPath
       id="bc6a15347b"><path
         d="m 333.69922,191.95312 c 0,49.44141 -25.3086,92.96485 -63.6836,118.32422 -22.38281,14.80078 -49.21484,23.42188 -78.0625,23.42188 -28.85156,0 -55.68359,-8.6211 -78.0664,-23.42188 -38.367189,-25.35937 -63.675782,-68.89062 -63.675782,-118.32422 0,-78.28515 63.457032,-141.742182 141.746092,-141.742182 78.28516,0 141.74219,63.457032 141.74219,141.742182 z m 0,0"
         id="path43" /></clipPath><clipPath
       id="521a82fee1"><path
         d="m 160,185.09375 h 11.55859 v 16.24609 H 160 Z m 0,0"
         id="path44" /></clipPath><clipPath
       id="00753c499f"><path
         d="m 333.69922,191.95312 c 0,49.44141 -25.3086,92.96485 -63.6836,118.32422 -22.38281,14.80078 -49.21484,23.42188 -78.0625,23.42188 -28.85156,0 -55.68359,-8.6211 -78.0664,-23.42188 -38.367189,-25.35937 -63.675782,-68.89062 -63.675782,-118.32422 0,-78.28515 63.457032,-141.742182 141.746092,-141.742182 78.28516,0 141.74219,63.457032 141.74219,141.742182 z m 0,0"
         id="path45" /></clipPath><clipPath
       id="2c6883a2a5"><path
         d="M 131,93.035156 H 255.49219 V 262 H 131 Z m 0,0"
         id="path46" /></clipPath><clipPath
       id="701cac28df"><path
         d="m 333.69922,191.95312 c 0,49.44141 -25.3086,92.96485 -63.6836,118.32422 -22.38281,14.80078 -49.21484,23.42188 -78.0625,23.42188 -28.85156,0 -55.68359,-8.6211 -78.0664,-23.42188 -38.367189,-25.35937 -63.675782,-68.89062 -63.675782,-118.32422 0,-78.28515 63.457032,-141.742182 141.746092,-141.742182 78.28516,0 141.74219,63.457032 141.74219,141.742182 z m 0,0"
         id="path47" /></clipPath><clipPath
       id="73aa41e2d4"><path
         d="M 129.13672,90.328125 H 258 V 264.51953 H 129.13672 Z m 0,0"
         id="path48" /></clipPath><clipPath
       id="a83fc2dd26"><path
         d="m 333.69922,191.95312 c 0,49.44141 -25.3086,92.96485 -63.6836,118.32422 -22.38281,14.80078 -49.21484,23.42188 -78.0625,23.42188 -28.85156,0 -55.68359,-8.6211 -78.0664,-23.42188 -38.367189,-25.35937 -63.675782,-68.89062 -63.675782,-118.32422 0,-78.28515 63.457032,-141.742182 141.746092,-141.742182 78.28516,0 141.74219,63.457032 141.74219,141.742182 z m 0,0"
         id="path49" /></clipPath><clipPath
       id="93e3bfc159"><path
         d="m 265.42187,85 h 4.51172 v 79.33594 h -4.51172 z m 0,0"
         id="path50" /></clipPath><clipPath
       id="27ddd253dd"><path
         d="m 333.69922,191.95312 c 0,49.44141 -25.3086,92.96485 -63.6836,118.32422 -22.38281,14.80078 -49.21484,23.42188 -78.0625,23.42188 -28.85156,0 -55.68359,-8.6211 -78.0664,-23.42188 -38.367189,-25.35937 -63.675782,-68.89062 -63.675782,-118.32422 0,-78.28515 63.457032,-141.742182 141.746092,-141.742182 78.28516,0 141.74219,63.457032 141.74219,141.742182 z m 0,0"
         id="path51" /></clipPath><clipPath
       id="a6103dcd12"><path
         d="m 263,83.109375 h 8.73828 V 167 H 263 Z m 0,0"
         id="path52" /></clipPath><clipPath
       id="2f043589fb"><path
         d="m 333.69922,191.95312 c 0,49.44141 -25.3086,92.96485 -63.6836,118.32422 -22.38281,14.80078 -49.21484,23.42188 -78.0625,23.42188 -28.85156,0 -55.68359,-8.6211 -78.0664,-23.42188 -38.367189,-25.35937 -63.675782,-68.89062 -63.675782,-118.32422 0,-78.28515 63.457032,-141.742182 141.746092,-141.742182 78.28516,0 141.74219,63.457032 141.74219,141.742182 z m 0,0"
         id="path53" /></clipPath><clipPath
       id="457e1414e4"><path
         d="m 260.00781,157.11719 h 14.4375 v 19.85547 h -14.4375 z m 0,0"
         id="path54" /></clipPath><clipPath
       id="0878ebe3e8"><path
         d="m 333.69922,191.95312 c 0,49.44141 -25.3086,92.96485 -63.6836,118.32422 -22.38281,14.80078 -49.21484,23.42188 -78.0625,23.42188 -28.85156,0 -55.68359,-8.6211 -78.0664,-23.42188 -38.367189,-25.35937 -63.675782,-68.89062 -63.675782,-118.32422 0,-78.28515 63.457032,-141.742182 141.746092,-141.742182 78.28516,0 141.74219,63.457032 141.74219,141.742182 z m 0,0"
         id="path55" /></clipPath><clipPath
       id="2a6752badf"><path
         d="M 258.19922,155.3125 H 277 v 23.46484 h -18.80078 z m 0,0"
         id="path56" /></clipPath><clipPath
       id="e7d96d46ce"><path
         d="m 333.69922,191.95312 c 0,49.44141 -25.3086,92.96485 -63.6836,118.32422 -22.38281,14.80078 -49.21484,23.42188 -78.0625,23.42188 -28.85156,0 -55.68359,-8.6211 -78.0664,-23.42188 -38.367189,-25.35937 -63.675782,-68.89062 -63.675782,-118.32422 0,-78.28515 63.457032,-141.742182 141.746092,-141.742182 78.28516,0 141.74219,63.457032 141.74219,141.742182 z m 0,0"
         id="path57" /></clipPath><clipPath
       id="cd0fc886d6"><path
         d="m 109,62 h 166 v 38 H 109 Z m 0,0"
         id="path58" /></clipPath><clipPath
       id="71408fbb4f"><path
         d="m 333.69922,191.95312 c 0,49.44141 -25.3086,92.96485 -63.6836,118.32422 -22.38281,14.80078 -49.21484,23.42188 -78.0625,23.42188 -28.85156,0 -55.68359,-8.6211 -78.0664,-23.42188 -38.367189,-25.35937 -63.675782,-68.89062 -63.675782,-118.32422 0,-78.28515 63.457032,-141.742182 141.746092,-141.742182 78.28516,0 141.74219,63.457032 141.74219,141.742182 z m 0,0"
         id="path59" /></clipPath><clipPath
       id="3590be40c0"><path
         d="M 107,59.644531 H 277 V 102 H 107 Z m 0,0"
         id="path60" /></clipPath><clipPath
       id="163d4c1582"><path
         d="m 333.69922,191.95312 c 0,49.44141 -25.3086,92.96485 -63.6836,118.32422 -22.38281,14.80078 -49.21484,23.42188 -78.0625,23.42188 -28.85156,0 -55.68359,-8.6211 -78.0664,-23.42188 -38.367189,-25.35937 -63.675782,-68.89062 -63.675782,-118.32422 0,-78.28515 63.457032,-141.742182 141.746092,-141.742182 78.28516,0 141.74219,63.457032 141.74219,141.742182 z m 0,0"
         id="path61" /></clipPath><clipPath
       id="d1808abbd0"><path
         d="M 132,90.328125 H 254.58984 V 164.33594 H 132 Z m 0,0"
         id="path62" /></clipPath><clipPath
       id="9dd9b8825b"><path
         d="m 333.69922,191.95312 c 0,49.44141 -25.3086,92.96485 -63.6836,118.32422 -22.38281,14.80078 -49.21484,23.42188 -78.0625,23.42188 -28.85156,0 -55.68359,-8.6211 -78.0664,-23.42188 -38.367189,-25.35937 -63.675782,-68.89062 -63.675782,-118.32422 0,-78.28515 63.457032,-141.742182 141.746092,-141.742182 78.28516,0 141.74219,63.457032 141.74219,141.742182 z m 0,0"
         id="path63" /></clipPath><clipPath
       id="9e2ab190d7"><path
         d="M 130.03906,88.523438 H 257 V 167 H 130.03906 Z m 0,0"
         id="path64" /></clipPath><clipPath
       id="4e0c4c2e80"><path
         d="m 333.69922,191.95312 c 0,49.44141 -25.3086,92.96485 -63.6836,118.32422 -22.38281,14.80078 -49.21484,23.42188 -78.0625,23.42188 -28.85156,0 -55.68359,-8.6211 -78.0664,-23.42188 -38.367189,-25.35937 -63.675782,-68.89062 -63.675782,-118.32422 0,-78.28515 63.457032,-141.742182 141.746092,-141.742182 78.28516,0 141.74219,63.457032 141.74219,141.742182 z m 0,0"
         id="path65" /></clipPath><clipPath
       id="0adb95f0c0"><path
         d="m 222.10156,260.91016 h 28.87891 V 334 h -28.87891 z m 0,0"
         id="path66" /></clipPath><clipPath
       id="3c8aca8b15"><path
         d="m 333.69922,191.95312 c 0,49.44141 -25.3086,92.96485 -63.6836,118.32422 -22.38281,14.80078 -49.21484,23.42188 -78.0625,23.42188 -28.85156,0 -55.68359,-8.6211 -78.0664,-23.42188 -38.367189,-25.35937 -63.675782,-68.89062 -63.675782,-118.32422 0,-78.28515 63.457032,-141.742182 141.746092,-141.742182 78.28516,0 141.74219,63.457032 141.74219,141.742182 z m 0,0"
         id="path67" /></clipPath><clipPath
       id="5c198f27d1"><path
         d="m 220.29297,258.19922 h 32.49219 V 334 h -32.49219 z m 0,0"
         id="path68" /></clipPath><clipPath
       id="d640729e67"><path
         d="m 333.69922,191.95312 c 0,49.44141 -25.3086,92.96485 -63.6836,118.32422 -22.38281,14.80078 -49.21484,23.42188 -78.0625,23.42188 -28.85156,0 -55.68359,-8.6211 -78.0664,-23.42188 -38.367189,-25.35937 -63.675782,-68.89062 -63.675782,-118.32422 0,-78.28515 63.457032,-141.742182 141.746092,-141.742182 78.28516,0 141.74219,63.457032 141.74219,141.742182 z m 0,0"
         id="path69" /></clipPath><clipPath
       id="89ce7ae227"><path
         d="m 133,260.91016 h 28.62891 V 334 H 133 Z m 0,0"
         id="path70" /></clipPath><clipPath
       id="dcd31c32d5"><path
         d="m 333.69922,191.95312 c 0,49.44141 -25.3086,92.96485 -63.6836,118.32422 -22.38281,14.80078 -49.21484,23.42188 -78.0625,23.42188 -28.85156,0 -55.68359,-8.6211 -78.0664,-23.42188 -38.367189,-25.35937 -63.675782,-68.89062 -63.675782,-118.32422 0,-78.28515 63.457032,-141.742182 141.746092,-141.742182 78.28516,0 141.74219,63.457032 141.74219,141.742182 z m 0,0"
         id="path71" /></clipPath><clipPath
       id="6046298e94"><path
         d="m 131,258.19922 h 33 V 334 h -33 z m 0,0"
         id="path72" /></clipPath><clipPath
       id="15ad4613b5"><path
         d="m 333.69922,191.95312 c 0,49.44141 -25.3086,92.96485 -63.6836,118.32422 -22.38281,14.80078 -49.21484,23.42188 -78.0625,23.42188 -28.85156,0 -55.68359,-8.6211 -78.0664,-23.42188 -38.367189,-25.35937 -63.675782,-68.89062 -63.675782,-118.32422 0,-78.28515 63.457032,-141.742182 141.746092,-141.742182 78.28516,0 141.74219,63.457032 141.74219,141.742182 z m 0,0"
         id="path73" /></clipPath></defs><rect
     style="fill:#7ee0d6;stroke-width:0.75;fill-opacity:1"
     id="rect1"
     width="96.000023"
     height="96.000023"
     x="0"
     y="-2.220446e-16"
     rx="12.000003"
     ry="12.000003" /><g
     id="812ce92fa9"
     transform="matrix(0.25160268,0,0,0.25160268,-0.29694376,-0.42226093)"><g
       clip-rule="nonzero"
       clip-path="url(#822fa667aa)"
       id="g77"><g
         clip-rule="nonzero"
         clip-path="url(#505ed0d9b9)"
         id="g76"><path
           style="fill:#231f1f;fill-opacity:1;fill-rule:nonzero;stroke:none"
           d="M 255.46484,297.01953 H 131.70312 V 179.08594 h 123.76172 v 117.93359"
           id="path76" /></g></g><g
       clip-rule="nonzero"
       clip-path="url(#283388eee3)"
       id="g79"><g
         clip-rule="nonzero"
         clip-path="url(#985fabbb86)"
         id="g78"><path
           style="fill:#231f1f;fill-opacity:1;fill-rule:nonzero;stroke:none"
           d="M 133.95703,294.76172 H 253.21094 V 181.33984 H 133.95703 Z m 121.50781,4.51562 H 131.70312 c -1.25781,0 -2.25781,-1.01172 -2.25781,-2.25781 V 179.08594 c 0,-1.25391 1,-2.25782 2.25781,-2.25782 h 123.76172 c 1.2461,0 2.25782,1.00391 2.25782,2.25782 v 117.93359 c 0,1.24609 -1.01172,2.25781 -2.25782,2.25781"
           id="path77" /></g></g><g
       clip-rule="nonzero"
       clip-path="url(#f1fdeeb651)"
       id="g81"><g
         clip-rule="nonzero"
         clip-path="url(#bbd9c9f5f1)"
         id="g80"><path
           style="fill:#231f1f;fill-opacity:1;fill-rule:nonzero;stroke:none"
           d="m 274.65625,334.08594 c -7.01563,5.23437 -14.54297,9.82031 -22.49219,13.65625 -0.60547,0.28906 -1.20312,0.57812 -1.80469,0.86718 -0.61328,0.27735 -1.23046,0.5586 -1.84375,0.82813 -8.24609,3.70312 -16.91406,6.61719 -25.91015,8.63672 -9.85547,2.23828 -20.11719,3.41406 -30.65235,3.41406 -20.14453,0 -39.28515,-4.30469 -56.55078,-12.05078 -1.22656,-0.53906 -2.45703,-1.10938 -3.65625,-1.69531 -7.94921,-3.84375 -15.46875,-8.42188 -22.48046,-13.65625 1.22656,-27.40235 15.78515,-51.33594 37.34765,-65.46875 13.02344,-8.54688 28.59766,-13.51172 45.33984,-13.51172 2.55469,0 5.08204,0.10937 7.57422,0.34375 8.08594,0.73047 15.83203,2.625 23.07813,5.52344 5.17187,2.04687 10.08984,4.62109 14.6914,7.64453 4.71094,3.08593 9.08985,6.64062 13.0625,10.59375 4.40235,4.38672 8.3125,9.26172 11.64063,14.53125 7.4375,11.77734 11.98828,25.5625 12.65625,40.34375"
           id="path79" /></g></g><g
       clip-rule="nonzero"
       clip-path="url(#2732710d20)"
       id="g83"><g
         clip-rule="nonzero"
         clip-path="url(#973388e6ba)"
         id="g82"><path
           style="fill:#231f1f;fill-opacity:1;fill-rule:nonzero;stroke:none"
           d="m 111.58203,332.99609 c 6.63672,4.86328 13.7461,9.13282 21.14844,12.71485 1.16406,0.57031 2.375,1.1289 3.58203,1.66015 17.54687,7.8711 36.25391,11.85938 55.64062,11.85938 10.19922,0 20.34375,-1.12891 30.14844,-3.35547 8.70703,-1.96094 17.28125,-4.8125 25.4961,-8.49219 0.61328,-0.27344 1.21875,-0.55078 1.82031,-0.83203 l 1.76953,-0.84766 c 7.38281,-3.55859 14.49609,-7.83593 21.14844,-12.70703 -0.8125,-13.5039 -5.02735,-26.625 -12.25,-38.05078 -3.21875,-5.10937 -7.02735,-9.86719 -11.32422,-14.13672 -3.8711,-3.85156 -8.14063,-7.32031 -12.69922,-10.30468 -4.52344,-2.96875 -9.32422,-5.46875 -14.28906,-7.4375 -7.17578,-2.8711 -14.72657,-4.67579 -22.45313,-5.3711 -2.34765,-0.21484 -4.82031,-0.33203 -7.36719,-0.33203 -15.75781,0 -31,4.54688 -44.10546,13.14063 -21.26172,13.93359 -34.75782,37.23046 -36.26563,62.49218 z m 80.37109,30.7461 c -20.02734,0 -39.35937,-4.11328 -57.48046,-12.2461 -1.2461,-0.55078 -2.5,-1.13672 -3.71875,-1.72265 -8.01563,-3.88282 -15.69532,-8.54688 -22.84375,-13.88282 -0.59375,-0.4414 -0.92969,-1.15234 -0.90235,-1.90234 1.21875,-27.16797 15.5586,-52.3125 38.36719,-67.25781 13.83594,-9.07813 29.94531,-13.88281 46.57812,-13.88281 2.6836,0 5.30079,0.11718 7.78125,0.35156 8.14844,0.74219 16.12891,2.64453 23.69922,5.67969 5.25391,2.07421 10.33594,4.71875 15.10157,7.85156 4.80859,3.14844 9.32421,6.8125 13.41015,10.88281 4.53125,4.50391 8.5586,9.53125 11.96094,14.92188 7.84375,12.41796 12.33594,26.75 13.00391,41.45312 0.0351,0.73828 -0.30469,1.46094 -0.91016,1.90234 -7.15625,5.35157 -14.84766,10.01954 -22.86328,13.88282 l -1.80469,0.875 c -0.65625,0.29687 -1.28125,0.57812 -1.90234,0.85547 -8.47657,3.80078 -17.33985,6.7539 -26.32813,8.77343 -10.125,2.30078 -20.61328,3.46485 -31.14844,3.46485"
           id="path81" /></g></g><g
       clip-rule="nonzero"
       clip-path="url(#65ab46cb5a)"
       id="g85"><g
         clip-rule="nonzero"
         clip-path="url(#c1140c3044)"
         id="g84"><path
           style="fill:#ffffff;fill-opacity:1;fill-rule:nonzero;stroke:none"
           d="m 236.07031,267.82031 c -0.3789,-0.24219 -0.75781,-0.47656 -1.14453,-0.70312 l -0.40625,-0.24219 -0.625,-0.37891 -0.61328,-0.36328 c -0.16016,-0.0898 -0.32422,-0.17969 -0.49609,-0.27734 -0.25391,-0.14453 -0.52344,-0.29688 -0.78516,-0.44141 -0.72266,-0.39844 -1.45313,-0.79687 -2.20313,-1.17578 -0.17968,-0.0977 -0.36718,-0.1875 -0.55078,-0.27734 -0.27734,-0.14453 -0.55859,-0.28907 -0.84765,-0.42578 -0.30469,-0.15235 -0.61328,-0.29688 -0.92969,-0.45313 -0.34375,-0.16016 -0.68359,-0.32422 -1.02734,-0.47656 l -1.13672,-0.51563 c -0.86719,-0.3789 -1.74219,-0.74609 -2.63672,-1.10156 -0.34375,-0.14453 -0.6875,-0.26953 -1.01953,-0.40625 -0.45313,-0.16797 -0.90235,-0.33984 -1.36328,-0.50391 -0.0273,-0.008 -0.0547,-0.0195 -0.0898,-0.0351 -0.4414,-0.16406 -0.88281,-0.31641 -1.33594,-0.46875 -0.35937,-0.12891 -0.73046,-0.25391 -1.10156,-0.3711 -0.21484,-0.0742 -0.44922,-0.14453 -0.67578,-0.21484 -0.35156,-0.12109 -0.70312,-0.22656 -1.05469,-0.33594 -0.46093,-0.13672 -0.91406,-0.26953 -1.375,-0.39843 -0.39453,-0.11719 -0.80078,-0.23438 -1.21875,-0.33204 -0.3789,-0.10937 -0.76562,-0.20703 -1.15234,-0.30859 -0.0391,-0.008 -0.082,-0.0156 -0.13672,-0.0273 -0.29687,-0.0781 -0.61328,-0.15235 -0.92187,-0.22266 -0.16016,-0.0469 -0.33204,-0.082 -0.4961,-0.12891 l -0.86719,-0.1875 c -1.28906,-0.28906 -2.59765,-0.54296 -3.91406,-0.76953 -0.30859,-0.043 -0.60547,-0.0976 -0.91406,-0.14453 -0.17969,-0.0351 -0.35938,-0.0625 -0.53906,-0.0898 -0.21875,-0.0274 -0.42578,-0.0625 -0.63282,-0.0899 -0.26953,-0.0352 -0.54296,-0.082 -0.80468,-0.10937 -0.17969,-0.0234 -0.36719,-0.0508 -0.55078,-0.0703 -0.28907,-0.0352 -0.58594,-0.082 -0.88282,-0.10938 -0.26172,-0.0352 -0.53125,-0.0625 -0.80468,-0.0898 -0.42188,-0.043 -0.85547,-0.0898 -1.28907,-0.125 -2.49218,-0.23438 -5.01953,-0.34375 -7.57422,-0.34375 -16.74218,0 -32.3164,4.96484 -45.33984,13.51172 0.24219,1.82422 0.59375,3.61718 1.04688,5.37109 5.07812,19.72656 22.98437,34.30469 44.29296,34.30469 13.30469,0 25.27344,-5.67969 33.62891,-14.73047 6.23828,-6.75 10.45313,-15.38672 11.71484,-24.94531 -0.40625,-0.26953 -0.8125,-0.53125 -1.22656,-0.79688"
           id="path83" /></g></g><g
       clip-rule="nonzero"
       clip-path="url(#65a6928e86)"
       id="g87"><g
         clip-rule="nonzero"
         clip-path="url(#826a9cd6f1)"
         id="g86"><path
           style="fill:#231f1f;fill-opacity:1;fill-rule:nonzero;stroke:none"
           d="m 149.05859,269.72656 c 0.20703,1.23828 0.46875,2.48047 0.78516,3.69922 4.94531,19.19922 22.26562,32.60938 42.10937,32.60938 12.10547,0 23.75782,-5.10938 31.96875,-14.00782 5.78516,-6.26172 9.55079,-13.95312 10.92969,-22.30078 -0.35937,-0.23437 -0.71094,-0.45312 -1.0625,-0.66015 l -2.12109,-1.25391 c -0.2461,-0.13281 -0.50781,-0.28906 -0.75,-0.42188 C 230.21484,267 229.5,266.62109 228.77734,266.25 c -0.17187,-0.0898 -0.27734,-0.14453 -0.38672,-0.19531 l -0.15234,-0.0742 c -0.28125,-0.14453 -0.53516,-0.27735 -0.80469,-0.40625 -0.23437,-0.11719 -0.42578,-0.20703 -0.62109,-0.29688 l -0.45313,-0.21875 c -0.28125,-0.13281 -0.55859,-0.26953 -0.83984,-0.39453 l -1.13672,-0.51562 c -0.82812,-0.35938 -1.66797,-0.71094 -2.54297,-1.06641 -0.23828,-0.0977 -0.42578,-0.16016 -0.61718,-0.24219 l -0.42188,-0.16015 c -0.39062,-0.15625 -0.82031,-0.31641 -1.26562,-0.47266 -0.0547,-0.0156 -0.11719,-0.043 -0.20704,-0.0781 -0.39453,-0.14454 -0.79296,-0.28125 -1.1914,-0.41797 -0.3711,-0.125 -0.71094,-0.25 -1.0625,-0.35938 l -0.67969,-0.21875 c -0.34375,-0.11719 -0.65625,-0.20703 -0.97266,-0.30469 l -0.20703,-0.0625 c -0.39062,-0.11718 -0.76953,-0.22656 -1.15625,-0.33593 -0.40625,-0.11719 -0.77734,-0.22657 -1.14843,-0.31641 -0.0352,-0.008 -0.0625,-0.008 -0.0977,-0.0273 -0.35156,-0.0977 -0.72266,-0.1875 -1.09375,-0.28907 -0.0781,-0.008 -0.0898,-0.008 -0.16797,-0.0351 -0.23828,-0.0625 -0.47266,-0.11719 -0.71484,-0.17188 l -0.125,-0.0351 c -0.0391,0 -0.0742,-0.0195 -0.10157,-0.0195 l -0.16015,-0.043 c -0.0898,-0.0195 -0.1836,-0.0469 -0.26172,-0.0625 L 209.38281,259.25 c -1.21094,-0.27344 -2.45312,-0.51563 -3.8164,-0.74219 l -0.85938,-0.14453 c -0.043,0 -0.082,-0.008 -0.11719,-0.0195 -0.125,-0.0234 -0.2539,-0.043 -0.37109,-0.0625 -0.14453,-0.0156 -0.27734,-0.0352 -0.41406,-0.0547 l -0.56641,-0.0781 c -0.13672,-0.0274 -0.27344,-0.0469 -0.40625,-0.0547 -0.0469,0 -0.082,-0.0117 -0.12891,-0.0195 -0.13281,-0.0156 -0.27734,-0.043 -0.41406,-0.0547 l -0.3164,-0.043 c -0.1875,-0.0195 -0.37891,-0.0469 -0.56641,-0.0625 -0.32813,-0.0469 -0.57031,-0.0664 -0.8125,-0.0937 -0.42578,-0.043 -0.83984,-0.0898 -1.25781,-0.125 -2.36328,-0.21484 -4.83594,-0.33203 -7.38282,-0.33203 -15.26953,0 -30.07031,4.26953 -42.89453,12.36328 z m 42.89453,40.82031 c -21.91015,0 -41.02734,-14.80078 -46.48046,-36 -0.47657,-1.85156 -0.84766,-3.74609 -1.09766,-5.63281 -0.12109,-0.85547 0.26953,-1.70703 1,-2.18359 13.83594,-9.07813 29.9375,-13.88281 46.57812,-13.88281 2.6836,0 5.3086,0.11718 7.78125,0.35156 0.4336,0.0391 0.88672,0.082 1.31641,0.13672 0.28906,0.0273 0.58984,0.0547 0.86719,0.0898 0.16406,0.0195 0.40625,0.0469 0.65234,0.082 l 0.22266,0.0273 c 0.14453,0.008 0.35156,0.0469 0.55078,0.0703 0.17187,0.0195 0.35156,0.0469 0.53516,0.0742 l 0.88281,0.125 c 0.0273,0 0.125,0.0195 0.14453,0.0195 0.17187,0.0273 0.33594,0.0547 0.50391,0.0898 0.15625,0.0195 0.30078,0.0469 0.45312,0.0625 l 0.40625,0.0625 c 1.49609,0.26172 2.81641,0.51563 4.07813,0.80469 l 0.85937,0.19141 0.13281,0.0234 0.16407,0.0469 c 0.0898,0.0195 0.1914,0.0469 0.28125,0.0703 l 0.0781,0.0195 c 0.26172,0.0547 0.51563,0.11719 0.76953,0.19141 0.0625,0.008 0.11719,0.0156 0.17188,0.0352 0.42187,0.10938 0.82031,0.20704 1.19922,0.31641 0.4414,0.10547 0.875,0.23438 1.28906,0.35156 0.37109,0.0977 0.77734,0.22657 1.20312,0.35157 l 0.17188,0.0469 c 0.008,0.008 0.0781,0.0234 0.0898,0.0234 0.33985,0.10937 0.6836,0.21875 1.03516,0.33594 l 0.67969,0.21484 c 0.35937,0.11719 0.74609,0.24609 1.1289,0.37891 0.44922,0.15625 0.91016,0.3164 1.3711,0.48828 0.0352,0.008 0.0703,0.0195 0.10546,0.0351 0.48829,0.17188 0.92969,0.34375 1.375,0.50782 l 0.41407,0.16015 c 0.21484,0.0937 0.44922,0.1836 0.67578,0.28125 0.86719,0.33594 1.76953,0.72266 2.66406,1.10938 l 1.16406,0.52343 c 0.29688,0.13672 0.61328,0.28125 0.92188,0.42579 l 0.47656,0.23437 c 0.21484,0.0977 0.42578,0.20703 0.64063,0.31641 0.26171,0.11718 0.57031,0.26953 0.86718,0.43359 l 0.10938,0.0547 c 0.16015,0.0703 0.33203,0.15234 0.48437,0.24219 0.72266,0.35937 1.47266,0.77734 2.22266,1.18359 0.26953,0.15234 0.55078,0.30469 0.8125,0.45703 l 2.17187,1.28516 c 0.39844,0.23437 0.80469,0.48437 1.21094,0.73828 0.41406,0.26953 0.83985,0.54297 1.26563,0.82031 0.71093,0.48047 1.08984,1.32031 0.98047,2.17578 -1.29688,9.82813 -5.55079,18.88281 -12.29297,26.1836 -9.07032,9.82031 -21.92969,15.44921 -35.28907,15.44921"
           id="path85" /></g></g><g
       clip-rule="nonzero"
       clip-path="url(#48d1be8bb1)"
       id="g89"><g
         clip-rule="nonzero"
         clip-path="url(#f4fd9df7bf)"
         id="g88"><path
           style="fill:#ffffff;fill-opacity:1;fill-rule:nonzero;stroke:none"
           d="m 171.80859,272.05469 v -39.64844 c 0,-10.02734 8.19532,-18.22266 18.22266,-18.22266 h 3.84766 c 10.02734,0 18.23046,8.19532 18.23046,18.22266 v 39.64844 c 0,10.02734 -8.20312,18.24218 -18.23046,18.24218 h -3.84766"
           id="path87" /></g></g><g
       clip-rule="nonzero"
       clip-path="url(#1700d177cc)"
       id="g91"><g
         clip-rule="nonzero"
         clip-path="url(#aceb4676e1)"
         id="g90"><path
           style="fill:#231f1f;fill-opacity:1;fill-rule:nonzero;stroke:none"
           d="m 193.87891,292.55078 h -3.84766 c -1.24609,0 -2.25391,-1.01172 -2.25391,-2.25391 0,-1.24609 1.00782,-2.25781 2.25391,-2.25781 h 3.84766 c 8.80859,0 15.97265,-7.17578 15.97265,-15.98437 v -39.64844 c 0,-8.80859 -7.16406,-15.96484 -15.97265,-15.96484 h -3.84766 c -8.80859,0 -15.96484,7.15625 -15.96484,15.96484 v 39.64844 c 0,1.24609 -1.01172,2.25781 -2.25782,2.25781 -1.24218,0 -2.2539,-1.01172 -2.2539,-2.25781 v -39.64844 c 0,-11.28906 9.1875,-20.47656 20.47656,-20.47656 h 3.84766 c 11.29687,0 20.48437,9.1875 20.48437,20.47656 v 39.64844 c 0,11.30078 -9.1875,20.49609 -20.48437,20.49609"
           id="path89" /></g></g><g
       clip-rule="nonzero"
       clip-path="url(#9a7dcbd0a0)"
       id="g93"><g
         clip-rule="nonzero"
         clip-path="url(#dd2243c8a5)"
         id="g92"><path
           style="fill:#ffffff;fill-opacity:1;fill-rule:nonzero;stroke:none"
           d="m 241.09766,217.11719 c 0,0 9.4414,-3.21094 15.46875,-13.73438 6.55468,-11.42969 2.4375,-18.55078 1.13671,-20.09375 -3.54687,-4.20312 -9.02343,-1.5039 -9.92578,0 -0.90234,1.50781 -13.97265,25.2461 -6.67968,33.82813"
           id="path91" /></g></g><g
       clip-rule="nonzero"
       clip-path="url(#73ce9e5d37)"
       id="g95"><g
         clip-rule="nonzero"
         clip-path="url(#a7eba05e58)"
         id="g94"><path
           style="fill:#231f1f;fill-opacity:1;fill-rule:nonzero;stroke:none"
           d="m 252.98437,183.28906 c -1.60546,0 -3.03125,0.88672 -3.30468,1.21875 -2.10157,3.50391 -11.36328,21.96875 -7.73438,29.78516 2.77344,-1.3711 8.58594,-4.91797 12.66406,-12.03125 6.46094,-11.26172 1.58985,-17.26563 1.3711,-17.51953 -0.82031,-0.97266 -1.80469,-1.45313 -2.9961,-1.45313 z M 241.09766,219.375 c -0.66016,0 -1.28907,-0.28125 -1.72266,-0.79688 -8.77344,-10.33203 6.31641,-36.1914 6.46875,-36.45312 0.99609,-1.64063 3.92578,-3.34766 7.14062,-3.34766 2.53516,0 4.76563,1.06641 6.45313,3.0586 2.67187,3.16797 5.48828,11.50781 -0.91016,22.67187 -6.38281,11.12891 -16.28125,14.60547 -16.69922,14.75 -0.24218,0.0781 -0.48828,0.11719 -0.73046,0.11719"
           id="path93" /></g></g><g
       clip-rule="nonzero"
       clip-path="url(#09da38ff74)"
       id="g97"><g
         clip-rule="nonzero"
         clip-path="url(#9b06f4802e)"
         id="g96"><path
           style="fill:#ffffff;fill-opacity:1;fill-rule:nonzero;stroke:none"
           d="m 145.26562,217.11719 c 0,0 -9.4414,-3.21094 -15.46875,-13.73438 -6.56249,-11.42969 -2.44531,-18.55078 -1.14453,-20.09375 3.54688,-4.20312 9.02344,-1.5039 9.92578,0 0.90235,1.50781 13.98047,25.2461 6.6875,33.82813"
           id="path95" /></g></g><g
       clip-rule="nonzero"
       clip-path="url(#e5634883ca)"
       id="g99"><g
         clip-rule="nonzero"
         clip-path="url(#e74e1b4131)"
         id="g98"><path
           style="fill:#231f1f;fill-opacity:1;fill-rule:nonzero;stroke:none"
           d="m 133.37891,183.28906 c -1.19141,0 -2.17579,0.48047 -2.9961,1.45313 -0.21484,0.2539 -5.08984,6.25781 1.36328,17.51953 4.11719,7.16797 9.90235,10.6875 12.67188,12.03906 3.6289,-7.81641 -5.63281,-26.28906 -7.76953,-29.84766 -0.23438,-0.27734 -1.66016,-1.16406 -3.26953,-1.16406 z m 11.88671,36.08594 c -0.24218,0 -0.48828,-0.0391 -0.73046,-0.11719 -0.41407,-0.14453 -10.31641,-3.62109 -16.70703,-14.75 -6.38672,-11.16406 -3.57422,-19.5039 -0.90235,-22.67187 1.6875,-1.99219 3.91797,-3.0586 6.45313,-3.0586 3.21484,0 6.14843,1.70703 7.14062,3.34766 0.15234,0.26172 15.24219,26.12109 6.47266,36.45312 -0.44532,0.51563 -1.07422,0.79688 -1.72657,0.79688"
           id="path97" /></g></g><g
       clip-rule="nonzero"
       clip-path="url(#68f844daea)"
       id="g101"><g
         clip-rule="nonzero"
         clip-path="url(#dfdccef51c)"
         id="g100"><path
           style="fill:#ffffff;fill-opacity:1;fill-rule:nonzero;stroke:none"
           d="m 250.34766,181.46875 c 0,-34.58594 -25.53125,-62.63672 -57.03907,-62.63672 -31.5,0 -57.05078,28.05078 -57.05078,62.63672 0,34.60156 25.55078,70.76562 57.05078,70.76562 29.60157,0 57.03907,-36.45312 57.03907,-70.76562"
           id="path99" /></g></g><g
       clip-rule="nonzero"
       clip-path="url(#fbf18e2472)"
       id="g103"><g
         clip-rule="nonzero"
         clip-path="url(#196e6ea0b2)"
         id="g102"><path
           style="fill:#231f1f;fill-opacity:1;fill-rule:nonzero;stroke:none"
           d="m 193.30859,121.08594 c -30.20703,0 -54.79297,27.09765 -54.79297,60.38281 0,16.49609 5.92188,33.61719 16.2461,46.98437 10.72265,13.88282 24.41406,21.52735 38.54687,21.52735 13.21485,0 27.00391,-7.89844 37.85157,-21.66406 10.75781,-13.65235 16.93359,-30.73047 16.93359,-46.84766 0,-33.28516 -24.57813,-60.38281 -54.78516,-60.38281 z m 0,133.40625 c -33.93359,0 -59.30468,-38.54688 -59.30468,-73.02344 0,-35.77734 26.60546,-64.89453 59.30468,-64.89453 32.69922,0 59.29688,29.11719 59.29688,64.89453 0,36.85937 -29.36719,73.02344 -59.29688,73.02344"
           id="path101" /></g></g><g
       clip-rule="nonzero"
       clip-path="url(#54935d12e7)"
       id="g105"><g
         clip-rule="nonzero"
         clip-path="url(#b095865d30)"
         id="g104"><path
           style="fill:#231f1f;fill-opacity:1;fill-rule:nonzero;stroke:none"
           d="m 238.10156,180.41016 c -0.41406,0 -0.83203,-0.11719 -1.21094,-0.35157 -16.10156,-10.26172 -30.23437,-1.75781 -30.82031,-1.39062 -1.0664,0.65234 -2.45312,0.32812 -3.10547,-0.73047 -0.65625,-1.05469 -0.33203,-2.44531 0.71485,-3.10547 0.69531,-0.42187 17.07422,-10.40625 35.63281,1.41797 1.05469,0.66797 1.37109,2.06641 0.69531,3.11328 -0.43359,0.67969 -1.15625,1.04688 -1.90625,1.04688"
           id="path103" /></g></g><g
       clip-rule="nonzero"
       clip-path="url(#7e3de4f690)"
       id="g107"><g
         clip-rule="nonzero"
         clip-path="url(#532136057a)"
         id="g106"><path
           style="fill:#231f1f;fill-opacity:1;fill-rule:nonzero;stroke:none"
           d="m 231.21484,190.41016 c -0.40625,0 -0.8125,-0.10547 -1.18359,-0.33204 -9.60938,-5.92187 -17.07422,-0.19921 -17.14844,-0.14453 -0.98047,0.76563 -2.39844,0.59375 -3.17578,-0.3789 -0.76562,-0.97657 -0.59375,-2.40235 0.39063,-3.16797 0.39453,-0.32422 10.04296,-7.70703 22.30078,-0.14453 1.0625,0.64843 1.39062,2.03906 0.73828,3.10547 -0.4336,0.68359 -1.16406,1.0625 -1.92188,1.0625"
           id="path105" /></g></g><g
       clip-rule="nonzero"
       clip-path="url(#033b21d336)"
       id="g109"><g
         clip-rule="nonzero"
         clip-path="url(#c37cd2b9d9)"
         id="g108"><path
           style="fill:#231f1f;fill-opacity:1;fill-rule:nonzero;stroke:none"
           d="m 152.83984,190.41016 c -0.75781,0 -1.5,-0.37891 -1.92187,-1.0625 -0.66016,-1.06641 -0.32813,-2.45704 0.73047,-3.10547 12.2539,-7.5625 21.90234,-0.17188 22.30859,0.14453 0.98438,0.76562 1.14844,2.1914 0.37891,3.16797 -0.76563,0.97265 -2.1836,1.14453 -3.15625,0.38672 -0.31641,-0.24219 -7.65625,-5.72266 -17.16016,0.13671 -0.36719,0.22657 -0.77344,0.33204 -1.17969,0.33204"
           id="path107" /></g></g><g
       clip-rule="nonzero"
       clip-path="url(#99261936f3)"
       id="g111"><g
         clip-rule="nonzero"
         clip-path="url(#3489df88b6)"
         id="g110"><path
           style="fill:#231f1f;fill-opacity:1;fill-rule:nonzero;stroke:none"
           d="m 178.86719,179.98828 c -0.46875,0 -0.94532,-0.14453 -1.34375,-0.44141 -0.57032,-0.41796 -13.94532,-10.05468 -30.83203,-1.17578 -1.10157,0.58594 -2.47266,0.16407 -3.05079,-0.9375 -0.57812,-1.10156 -0.16015,-2.47265 0.94922,-3.05078 19.47657,-10.24609 34.98047,1.05469 35.63282,1.54297 0.99218,0.75 1.19921,2.15625 0.44921,3.16016 -0.4414,0.59375 -1.11718,0.90234 -1.80468,0.90234"
           id="path109" /></g></g><g
       clip-rule="nonzero"
       clip-path="url(#91f2f6ae0a)"
       id="g113"><g
         clip-rule="nonzero"
         clip-path="url(#f0a7091be9)"
         id="g112"><path
           style="fill:#231f1f;fill-opacity:1;fill-rule:nonzero;stroke:none"
           d="m 192.83203,216.50391 c -2.44922,0 -4.28906,-0.86719 -4.39844,-0.92188 -1.11718,-0.53906 -1.58593,-1.89453 -1.04687,-3.01172 0.54297,-1.12109 1.8789,-1.58984 2.99609,-1.05859 0.082,0.0391 2.40235,1.0664 4.59375,0.0117 1.1211,-0.54297 2.46485,-0.0742 3.01563,1.04687 0.54297,1.11719 0.0742,2.47266 -1.05469,3.01172 -1.42578,0.69531 -2.85156,0.92188 -4.10547,0.92188"
           id="path111" /></g></g><g
       clip-rule="nonzero"
       clip-path="url(#a65de465dd)"
       id="g115"><g
         clip-rule="nonzero"
         clip-path="url(#c694a72276)"
         id="g114"><path
           style="fill:#231f1f;fill-opacity:1;fill-rule:nonzero;stroke:none"
           d="m 191.88281,226.9375 c -6.21875,0 -10.3789,-1.85938 -10.63281,-1.97656 -1.13672,-0.51563 -1.63281,-1.85938 -1.10938,-2.98828 0.51563,-1.12891 1.85157,-1.63282 2.97657,-1.11719 0.14453,0.0625 8.08984,3.50781 18.03515,-0.0664 1.17188,-0.42187 2.46485,0.19141 2.88672,1.35547 0.42578,1.18359 -0.1875,2.47266 -1.36328,2.88672 -3.96094,1.42578 -7.64453,1.90625 -10.79297,1.90625"
           id="path113" /></g></g><g
       clip-rule="nonzero"
       clip-path="url(#8c21af00ed)"
       id="g117"><g
         clip-rule="nonzero"
         clip-path="url(#bc6a15347b)"
         id="g116"><path
           style="fill:#231f1f;fill-opacity:1;fill-rule:nonzero;stroke:none"
           d="m 223.97656,193.54297 c 0,4.19531 -2.42578,7.60937 -5.43359,7.60937 -3.00391,0 -5.4336,-3.41406 -5.4336,-7.60937 0,-4.21485 2.42969,-7.625 5.4336,-7.625 3.00781,0 5.43359,3.41015 5.43359,7.625"
           id="path115" /></g></g><g
       clip-rule="nonzero"
       clip-path="url(#521a82fee1)"
       id="g119"><g
         clip-rule="nonzero"
         clip-path="url(#00753c499f)"
         id="g118"><path
           style="fill:#231f1f;fill-opacity:1;fill-rule:nonzero;stroke:none"
           d="m 171.20703,193.54297 c 0,4.19531 -2.4375,7.60937 -5.43359,7.60937 -3.00782,0 -5.44532,-3.41406 -5.44532,-7.60937 0,-4.21485 2.4375,-7.625 5.44532,-7.625 2.99609,0 5.43359,3.41015 5.43359,7.625"
           id="path117" /></g></g><g
       clip-rule="nonzero"
       clip-path="url(#2c6883a2a5)"
       id="g121"><g
         clip-rule="nonzero"
         clip-path="url(#701cac28df)"
         id="g120"><path
           style="fill:#231f1f;fill-opacity:1;fill-rule:nonzero;stroke:none"
           d="m 255.46484,261.82031 -0.85547,-90.76953 c 0.79297,-4.125 1.39844,-11.50781 0.0703,-23.86328 -2.42578,-22.53516 -18.08594,-57.90625 -56.19922,-53.394531 -15.72266,-3.488281 -63.53125,3.042969 -66.63281,67.441401 h -0.14454 v 5.30469 c -0.0117,0.46875 -0.0195,0.9375 -0.0195,1.41016 l 0.0195,0.0156 v 93.85547 h 18.06641 v -85.23437 c 4.1875,1.3789 9.14453,2.70703 14.91016,3.78906 1.04687,-16.19922 4.01562,-28.36719 4.01562,-28.36719 -2.32812,12.98047 2.72656,21.63281 2.94531,29.4961 16.17969,2.20312 37.6875,2.36328 65.17969,-2.57422 l 0.56641,82.89062 h 18.07812"
           id="path119" /></g></g><g
       clip-rule="nonzero"
       clip-path="url(#73aa41e2d4)"
       id="g123"><g
         clip-rule="nonzero"
         clip-path="url(#a83fc2dd26)"
         id="g122"><path
           style="fill:#231f1f;fill-opacity:1;fill-rule:nonzero;stroke:none"
           d="m 239.62891,259.5625 h 13.55468 l -0.83203,-88.49219 c 0,-0.14453 0.0195,-0.29687 0.0469,-0.45312 0.73828,-3.84375 1.35156,-10.99219 0.043,-23.1836 -1.92969,-17.90625 -14.33204,-51.781246 -47.46485,-51.781246 -2.01953,0 -4.12109,0.136718 -6.23437,0.378906 -0.25391,0.03906 -0.50391,0.01953 -0.75,-0.03516 -2.04688,-0.449219 -4.56641,-0.695313 -7.26563,-0.695313 -24.65625,0 -54.27734,17.292973 -56.63281,66.039063 -0.008,0.2461 -0.0547,0.48047 -0.13672,0.69532 l -0.0156,5.07421 v 0.59375 c 0.008,0.082 0.0156,0.17188 0.0156,0.26172 v 91.59766 h 13.55859 v -82.97656 c 0,-0.72266 0.35157,-1.39844 0.92969,-1.82422 0.59375,-0.42578 1.34375,-0.54297 2.02735,-0.31641 3.80859,1.25391 7.89062,2.33594 12.14062,3.22266 1.16406,-14.91016 3.77344,-25.71485 3.89063,-26.19141 0.28906,-1.18359 1.46093,-1.93359 2.65234,-1.67969 1.19922,0.25391 1.97656,1.41016 1.76172,2.60938 -1.41797,7.89844 0.0781,14.17969 1.39844,19.73047 0.60546,2.53515 1.17968,4.96094 1.4414,7.36328 18.4336,2.27344 39.72266,1.32812 62.66406,-2.78906 0.66016,-0.11719 1.32813,0.0547 1.84375,0.47656 0.51172,0.42578 0.8125,1.05859 0.8125,1.72656 z m 15.83593,4.51562 h -18.07812 c -1.23438,0 -2.2461,-1.0039 -2.25391,-2.25 l -0.55078,-80.21484 c -14.11719,2.39844 -27.61719,3.60938 -40.17187,3.60938 -8.05079,0 -15.8125,-0.4961 -23.07813,-1.48047 -1.09375,-0.15235 -1.91406,-1.07422 -1.94922,-2.17578 -0.0625,-2.5625 -0.71484,-5.26172 -1.45312,-8.39454 -0.0898,-0.35156 -0.17188,-0.70312 -0.25391,-1.0625 -0.29687,2.63282 -0.55078,5.46094 -0.73828,8.41016 -0.0469,0.64844 -0.36328,1.24609 -0.875,1.64453 -0.50781,0.38672 -1.16406,0.55078 -1.79688,0.42969 -4.25,-0.80078 -8.35937,-1.78516 -12.23828,-2.92969 v 82.15625 c 0,1.2461 -1.01172,2.25781 -2.25781,2.25781 h -18.06641 c -1.25781,0 -2.25781,-1.01171 -2.25781,-2.25781 v -93.57422 c -0.0195,-0.10156 -0.0195,-0.19922 -0.0195,-0.29687 v -0.91406 l 0.0195,-0.52344 v -5.27735 c 0,-0.32812 0.0625,-0.63281 0.17969,-0.91406 1.35547,-24.875 9.34375,-43.66406 23.77344,-55.85937 C 168,92.117188 184.36328,90.789062 190.72656,90.789062 c 2.8711,0 5.57813,0.253907 7.86328,0.722657 2.16407,-0.242188 4.3125,-0.371094 6.38672,-0.371094 15.5,0 28.75781,6.867187 38.33985,19.867185 10.28906,13.94141 12.94531,29.78125 13.61328,35.9375 1.34375,12.52735 0.72265,20.09766 -0.0625,24.30469 l 0.85547,90.54297 c 0,0.60547 -0.23438,1.18359 -0.66016,1.61719 -0.42188,0.42187 -1,0.66796 -1.59766,0.66796"
           id="path121" /></g></g><g
       clip-rule="nonzero"
       clip-path="url(#93e3bfc159)"
       id="g125"><g
         clip-rule="nonzero"
         clip-path="url(#27ddd253dd)"
         id="g124"><path
           style="fill:#ffffff;fill-opacity:1;fill-rule:nonzero;stroke:none"
           d="m 269.38281,164.04687 h -3.60937 V 85.523438 h 3.60937 v 78.523432"
           id="path123" /></g></g><g
       clip-rule="nonzero"
       clip-path="url(#a6103dcd12)"
       id="g127"><g
         clip-rule="nonzero"
         clip-path="url(#2f043589fb)"
         id="g126"><path
           style="fill:#231f1f;fill-opacity:1;fill-rule:nonzero;stroke:none"
           d="m 269.38281,166.30469 h -3.60937 c -1.2461,0 -2.25782,-1.01172 -2.25782,-2.25782 V 85.523438 c 0,-1.242188 1.01172,-2.253907 2.25782,-2.253907 h 3.60937 c 1.2461,0 2.25781,1.011719 2.25781,2.253907 v 78.523432 c 0,1.2461 -1.01171,2.25782 -2.25781,2.25782"
           id="path125" /></g></g><g
       clip-rule="nonzero"
       clip-path="url(#457e1414e4)"
       id="g129"><g
         clip-rule="nonzero"
         clip-path="url(#0878ebe3e8)"
         id="g128"><path
           style="fill:#ffffff;fill-opacity:1;fill-rule:nonzero;stroke:none"
           d="m 265.77344,157.73047 c 0,0 -11.35547,8.88281 0.3789,17.7539 l -1.19922,-3.00781 3.00391,3.61328 h 2.25781 c 0,0 9.70313,-12.04297 -0.83203,-18.35937 h -3.60937"
           id="path127" /></g></g><g
       clip-rule="nonzero"
       clip-path="url(#2a6752badf)"
       id="g131"><g
         clip-rule="nonzero"
         clip-path="url(#e7d96d46ce)"
         id="g130"><path
           style="fill:#231f1f;fill-opacity:1;fill-rule:nonzero;stroke:none"
           d="m 269.01172,173.83203 h 0.0469 c 1.16407,-1.71484 3.51953,-5.74219 2.85938,-9.35937 -0.3125,-1.79688 -1.35938,-3.26563 -3.1836,-4.48438 h -2.10156 c -1.12109,1.05469 -3.57422,3.72656 -3.53906,6.83984 0.008,1.1836 0.39453,2.35547 1.14453,3.5 0.85938,-0.28515 1.84375,-0.0234 2.4375,0.69532 z m 1.20312,4.51172 h -2.25781 c -0.58594,0 -1.13672,-0.22656 -1.55078,-0.62109 -0.082,0.008 -0.12891,0.0273 -0.24609,0.0156 h -0.008 c -0.47656,0 -0.95703,-0.15234 -1.36328,-0.45703 -4.08594,-3.09766 -6.18359,-6.60938 -6.20703,-10.43359 -0.0547,-6.2461 5.56641,-10.70704 5.80078,-10.89454 0.39844,-0.30859 0.89453,-0.48046 1.39063,-0.48046 h 3.60937 c 0.40625,0 0.8125,0.10937 1.16406,0.32812 3.27735,1.95703 5.23438,4.62109 5.82422,7.89453 1.19922,6.76172 -4.17187,13.51953 -4.40625,13.80078 -0.42578,0.53125 -1.07422,0.84766 -1.75,0.84766"
           id="path129" /></g></g><g
       clip-rule="nonzero"
       clip-path="url(#cd0fc886d6)"
       id="g133"><g
         clip-rule="nonzero"
         clip-path="url(#71408fbb4f)"
         id="g132"><path
           style="fill:#231f1f;fill-opacity:1;fill-rule:nonzero;stroke:none"
           d="m 191.95312,62.0625 -82.68749,21.660156 23.35546,15.792969 59.34375,-3.457031 62.71485,3.457031 L 274.65625,83.722656 191.95312,62.0625"
           id="path131" /></g></g><g
       clip-rule="nonzero"
       clip-path="url(#3590be40c0)"
       id="g135"><g
         clip-rule="nonzero"
         clip-path="url(#163d4c1582)"
         id="g134"><path
           style="fill:#231f1f;fill-opacity:1;fill-rule:nonzero;stroke:none"
           d="m 114.65234,84.640625 18.59375,12.582031 58.58203,-3.417968 c 0.082,-0.01172 0.16407,-0.01172 0.25391,0 l 61.86719,3.410156 15.75,-12.457032 -77.7461,-20.363281 z m 140.02735,17.132815 h -0.125 L 191.96484,98.316406 132.75,101.77344 c -0.5,0.0273 -0.98438,-0.10938 -1.40234,-0.38672 L 107.99219,85.589844 c -0.73047,-0.496094 -1.10938,-1.375 -0.95703,-2.25 0.15234,-0.871094 0.79297,-1.574219 1.65234,-1.800782 l 82.69141,-21.660156 c 0.3789,-0.09766 0.77343,-0.09766 1.14453,0 l 82.69922,21.660156 c 0.82031,0.21875 1.46093,0.882813 1.63281,1.722657 0.18359,0.835937 -0.13281,1.699219 -0.8125,2.230469 l -19.96094,15.792972 c -0.39844,0.3164 -0.89453,0.48828 -1.40234,0.48828"
           id="path133" /></g></g><g
       clip-rule="nonzero"
       clip-path="url(#d1808abbd0)"
       id="g137"><g
         clip-rule="nonzero"
         clip-path="url(#9dd9b8825b)"
         id="g136"><path
           style="fill:#231f1f;fill-opacity:1;fill-rule:nonzero;stroke:none"
           d="m 254.52734,99.515625 c 0,0 -17.14062,-8.574219 -60.95703,-8.574219 -40.61328,0 -60.94922,8.574219 -60.94922,8.574219 V 164.04687 H 254.52734 V 99.515625"
           id="path135" /></g></g><g
       clip-rule="nonzero"
       clip-path="url(#9e2ab190d7)"
       id="g139"><g
         clip-rule="nonzero"
         clip-path="url(#4e0c4c2e80)"
         id="g138"><path
           style="fill:#231f1f;fill-opacity:1;fill-rule:nonzero;stroke:none"
           d="m 134.87891,161.79297 h 117.39453 v -60.78516 c -4.64063,-1.843748 -22.50391,-7.808591 -58.70313,-7.808591 -33.77344,0 -53.51172,6.054687 -58.6914,7.878911 z m 119.64843,4.51172 H 132.62109 c -1.24609,0 -2.2539,-1.01172 -2.2539,-2.25782 V 99.515625 c 0,-0.902344 0.53906,-1.722656 1.3789,-2.074219 0.83985,-0.363281 21.21875,-8.753906 61.82422,-8.753906 43.84375,0 61.2461,8.457031 61.96875,8.816406 0.75781,0.378906 1.2461,1.15625 1.2461,2.011719 v 64.531245 c 0,1.2461 -1.01172,2.25782 -2.25782,2.25782"
           id="path137" /></g></g><g
       clip-rule="nonzero"
       clip-path="url(#0adb95f0c0)"
       id="g141"><g
         clip-rule="nonzero"
         clip-path="url(#3c8aca8b15)"
         id="g140"><path
           style="fill:#ffffff;fill-opacity:1;fill-rule:nonzero;stroke:none"
           d="m 250.35937,279.21094 v 86.55468 h -27.7539 V 260.97266 c 5.17187,2.04687 10.08984,4.62109 14.6914,7.64453 4.71094,3.08593 9.08985,6.64062 13.0625,10.59375"
           id="path139" /></g></g><g
       clip-rule="nonzero"
       clip-path="url(#5c198f27d1)"
       id="g143"><g
         clip-rule="nonzero"
         clip-path="url(#d640729e67)"
         id="g142"><path
           style="fill:#231f1f;fill-opacity:1;fill-rule:nonzero;stroke:none"
           d="m 224.86328,363.50781 h 23.23828 v -83.34765 c -3.69922,-3.59375 -7.74219,-6.83985 -12.03906,-9.65625 -3.57422,-2.34766 -7.32813,-4.40625 -11.19922,-6.12891 z m 25.49609,4.51563 h -27.7539 c -1.2461,0 -2.25781,-1.01172 -2.25781,-2.25782 V 260.97266 c 0,-0.75 0.37109,-1.44532 0.98437,-1.86719 0.625,-0.41797 1.41016,-0.50781 2.10156,-0.22656 5.25391,2.07421 10.33594,4.71875 15.10157,7.85156 4.80859,3.14844 9.32421,6.8125 13.41015,10.88281 0.42578,0.42578 0.66797,0.99609 0.66797,1.59766 v 86.55468 c 0,1.2461 -1.00781,2.25782 -2.25391,2.25782"
           id="path141" /></g></g><g
       clip-rule="nonzero"
       clip-path="url(#89ce7ae227)"
       id="g145"><g
         clip-rule="nonzero"
         clip-path="url(#dcd31c32d5)"
         id="g144"><path
           style="fill:#ffffff;fill-opacity:1;fill-rule:nonzero;stroke:none"
           d="m 133.48828,279.21094 v 86.55468 h 27.75391 V 260.97266 c -5.17188,2.04687 -10.08985,4.62109 -14.69532,7.64453 -4.71093,3.08593 -9.08593,6.64062 -13.05859,10.59375"
           id="path143" /></g></g><g
       clip-rule="nonzero"
       clip-path="url(#6046298e94)"
       id="g147"><g
         clip-rule="nonzero"
         clip-path="url(#15ad4613b5)"
         id="g146"><path
           style="fill:#231f1f;fill-opacity:1;fill-rule:nonzero;stroke:none"
           d="m 135.74609,363.50781 h 23.23828 V 264.375 c -3.87109,1.72266 -7.625,3.78125 -11.19921,6.12891 -4.29688,2.8164 -8.34766,6.05468 -12.03907,9.65625 z m 25.4961,4.51563 h -27.75391 c -1.24609,0 -2.25781,-1.01172 -2.25781,-2.25782 v -86.55468 c 0,-0.60157 0.24609,-1.17188 0.66015,-1.59766 4.09766,-4.07031 8.60938,-7.73437 13.42188,-10.88281 4.76562,-3.13281 9.84766,-5.77735 15.09766,-7.85156 0.69531,-0.28125 1.48046,-0.19141 2.10546,0.22656 0.61329,0.42187 0.98047,1.11719 0.98047,1.86719 v 104.79296 c 0,1.2461 -1.00781,2.25782 -2.2539,2.25782"
           id="path145" /></g></g></g></svg>
