<?xml version="1.0" encoding="UTF-8" standalone="no"?>
<svg
   width="1024"
   zoomAndPan="magnify"
   viewBox="0 0 768 383.99999"
   height="512"
   preserveAspectRatio="xMidYMid"
   version="1.2"
   id="svg147"
   xml:space="preserve"
   xmlns="http://www.w3.org/2000/svg"
   xmlns:svg="http://www.w3.org/2000/svg"><defs
     id="defs73"><clipPath
       clipPathUnits="userSpaceOnUse"
       id="clipPath109"><path
         d="m 30.832008,44.558599 h 6.585898 v 10.218407 h -6.585898 z m 0,0"
         id="path110"
         style="stroke-width:0.251603" /></clipPath><clipPath
       clipPathUnits="userSpaceOnUse"
       id="clipPath110"><path
         d="m 31.404993,45.117825 h 5.535261 v 9.205119 h -5.535261 z m 0,0"
         id="path111"
         style="stroke-width:0.251603" /></clipPath><clipPath
       clipPathUnits="userSpaceOnUse"
       id="clipPath111"><path
         d="M 42.867658,53.420711 H 53.086065 V 72.716478 H 42.867658 Z m 0,0"
         id="path112"
         style="stroke-width:0.251603" /></clipPath><clipPath
       clipPathUnits="userSpaceOnUse"
       id="clipPath112"><path
         d="M 35.933843,63.179161 H 60.087699 V 77.712163 H 35.933843 Z m 0,0"
         id="path113"
         style="stroke-width:0.251603" /></clipPath><clipPath
       clipPathUnits="userSpaceOnUse"
       id="clipPath113"><path
         d="m 59.21692,44.558599 h 6.585894 V 54.777006 H 59.21692 Z m 0,0"
         id="path114"
         style="stroke-width:0.251603" /></clipPath><clipPath
       clipPathUnits="userSpaceOnUse"
       id="clipPath114"><path
         d="m 59.670982,45.117825 h 5.67777 v 9.205119 h -5.67777 z m 0,0"
         id="path115"
         style="stroke-width:0.251603" /></clipPath><clipPath
       clipPathUnits="userSpaceOnUse"
       id="clipPath115"><path
         d="M 33.921021,29.344498 H 62.850415 V 63.179161 H 33.921021 Z m 0,0"
         id="path116"
         style="stroke-width:0.251603" /></clipPath><clipPath
       clipPathUnits="userSpaceOnUse"
       id="clipPath116"><path
         d="M 33.417815,28.890436 H 63.304481 V 63.633223 H 33.417815 Z m 0,0"
         id="path117"
         style="stroke-width:0.251603" /></clipPath><clipPath
       clipPathUnits="userSpaceOnUse"
       id="clipPath117"><path
         d="M 26.624542,63.179161 H 69.397001 V 83.613034 H 26.624542 Z m 0,0"
         id="path118"
         style="stroke-width:0.251603" /></clipPath><clipPath
       clipPathUnits="userSpaceOnUse"
       id="clipPath118"><path
         d="M 42.223907,52.733721 H 53.767164 V 73.297322 H 42.223907 Z m 0,0"
         id="path119"
         style="stroke-width:0.251603" /></clipPath><clipPath
       clipPathUnits="userSpaceOnUse"
       id="clipPath119"><path
         d="M 36.508796,63.736424 H 59.443953 V 77.258101 H 36.508796 Z m 0,0"
         id="path120"
         style="stroke-width:0.251603" /></clipPath><clipPath
       clipPathUnits="userSpaceOnUse"
       id="clipPath120"><path
         d="m 66.483909,20.963965 h 1.135162 v 19.961139 h -1.135162 z m 0,0"
         id="path121"
         style="stroke-width:0.251603" /></clipPath><clipPath
       clipPathUnits="userSpaceOnUse"
       id="clipPath121"><path
         d="m 65.874562,20.488281 h 2.198575 v 21.107105 h -2.198575 z m 0,0"
         id="path122"
         style="stroke-width:0.251603" /></clipPath><clipPath
       clipPathUnits="userSpaceOnUse"
       id="clipPath122"><path
         d="M 32.91461,22.304537 H 63.758543 V 40.925104 H 32.91461 Z m 0,0"
         id="path123"
         style="stroke-width:0.251603" /></clipPath><clipPath
       clipPathUnits="userSpaceOnUse"
       id="clipPath123"><path
         d="m 65.121719,39.108844 h 3.632513 v 4.995693 h -3.632513 z m 0,0"
         id="path124"
         style="stroke-width:0.251603" /></clipPath><clipPath
       clipPathUnits="userSpaceOnUse"
       id="clipPath124"><path
         d="m 46.752757,52.733721 h 2.926846 v 1.36219 h -2.926846 z m 0,0"
         id="path125"
         style="stroke-width:0.251603" /></clipPath><clipPath
       clipPathUnits="userSpaceOnUse"
       id="clipPath125"><path
         d="M 32.421231,21.850471 H 64.364945 V 41.595386 H 32.421231 Z m 0,0"
         id="path126"
         style="stroke-width:0.251603" /></clipPath><clipPath
       clipPathUnits="userSpaceOnUse"
       id="clipPath126"><path
         d="m 52.288015,45.466727 h 6.247805 v 2.044271 h -6.247805 z m 0,0"
         id="path127"
         style="stroke-width:0.251603" /></clipPath><clipPath
       clipPathUnits="userSpaceOnUse"
       id="clipPath127"><path
         d="m 37.443456,45.466727 h 6.290068 v 2.044271 h -6.290068 z m 0,0"
         id="path128"
         style="stroke-width:0.251603" /></clipPath><clipPath
       clipPathUnits="userSpaceOnUse"
       id="clipPath128"><path
         d="m 35.682238,42.350196 h 9.682771 v 2.516024 h -9.682771 z m 0,0"
         id="path129"
         style="stroke-width:0.251603" /></clipPath><clipPath
       clipPathUnits="userSpaceOnUse"
       id="clipPath129"><path
         d="M 50.587732,42.350196 H 60.3393 v 2.662465 h -9.751568 z m 0,0"
         id="path130"
         style="stroke-width:0.251603" /></clipPath><clipPath
       clipPathUnits="userSpaceOnUse"
       id="clipPath130"><path
         d="M 32.194202,43.8775 H 64.61655 V 74.987778 H 32.194202 Z m 0,0"
         id="path131"
         style="stroke-width:0.251603" /></clipPath><clipPath
       clipPathUnits="userSpaceOnUse"
       id="clipPath131"><path
         d="M 32.663009,44.61462 H 63.985576 V 74.533716 H 32.663009 Z m 0,0"
         id="path132"
         style="stroke-width:0.251603" /></clipPath><clipPath
       clipPathUnits="userSpaceOnUse"
       id="clipPath132"><path
         d="m 55.584403,65.223437 h 7.266012 v 18.389597 h -7.266012 z m 0,0"
         id="path133"
         style="stroke-width:0.251603" /></clipPath><clipPath
       clipPathUnits="userSpaceOnUse"
       id="clipPath133"><path
         d="m 33.166215,65.223437 h 7.203109 v 18.389597 h -7.203109 z m 0,0"
         id="path134"
         style="stroke-width:0.251603" /></clipPath><clipPath
       clipPathUnits="userSpaceOnUse"
       id="clipPath134"><path
         d="m 39.959484,46.147822 h 2.908174 v 4.087561 h -2.908174 z m 0,0"
         id="path135"
         style="stroke-width:0.251603" /></clipPath><clipPath
       clipPathUnits="userSpaceOnUse"
       id="clipPath135"><path
         d="m 53.313102,46.147822 h 2.748957 v 4.087561 h -2.748957 z m 0,0"
         id="path136"
         style="stroke-width:0.251603" /></clipPath><clipPath
       clipPathUnits="userSpaceOnUse"
       id="clipPath136"><path
         d="m 55.129359,64.541356 h 8.175122 v 19.071678 h -8.175122 z m 0,0"
         id="path137"
         style="stroke-width:0.251603" /></clipPath><clipPath
       clipPathUnits="userSpaceOnUse"
       id="clipPath137"><path
         d="m 27.127748,15.177107 h 41.766043 v 9.560898 H 27.127748 Z m 0,0"
         id="path138"
         style="stroke-width:0.251603" /></clipPath><clipPath
       clipPathUnits="userSpaceOnUse"
       id="clipPath138"><path
         d="m 64.666671,38.654781 h 4.73033 v 5.903818 h -4.73033 z m 0,0"
         id="path139"
         style="stroke-width:0.251603" /></clipPath><clipPath
       clipPathUnits="userSpaceOnUse"
       id="clipPath139"><path
         d="m 44.910947,55.004039 h 6.358866 v 1.687507 h -6.358866 z m 0,0"
         id="path140"
         style="stroke-width:0.251603" /></clipPath><clipPath
       clipPathUnits="userSpaceOnUse"
       id="clipPath140"><path
         d="m 32.663009,64.541356 h 8.302886 v 19.071678 h -8.302886 z m 0,0"
         id="path141"
         style="stroke-width:0.251603" /></clipPath><clipPath
       clipPathUnits="userSpaceOnUse"
       id="clipPath141"><path
         d="m 27.127748,63.736424 h 41.766043 v 19.87661 H 27.127748 Z m 0,0"
         id="path142"
         style="stroke-width:0.251603" /></clipPath><clipPath
       clipPathUnits="userSpaceOnUse"
       id="clipPath142"><path
         d="M 32.663009,22.985633 H 63.985576 V 65.497641 H 32.663009 Z m 0,0"
         id="path143"
         style="stroke-width:0.251603" /></clipPath><clipPath
       clipPathUnits="userSpaceOnUse"
       id="clipPath143"><path
         d="M 32.194202,22.304537 H 64.61655 V 66.131561 H 32.194202 Z m 0,0"
         id="path144"
         style="stroke-width:0.251603" /></clipPath><clipPath
       clipPathUnits="userSpaceOnUse"
       id="clipPath144"><path
         d="M 26.624542,14.584464 H 69.397001 V 25.241211 H 26.624542 Z m 0,0"
         id="path145"
         style="stroke-width:0.251603" /></clipPath></defs><g
     id="text2"
     style="font-weight:bold;font-size:42.6667px;line-height:1.1;font-family:Ebrima;-inkscape-font-specification:'Ebrima, Bold';white-space:pre;stroke-width:0.178"
     transform="matrix(1.3327539,0,0,1.3327539,-274.63806,-76.339626)"
     aria-label="Student Check&#10;PKC 505"><path
       d="m 450.98698,189.01116 v -6.66668 q 1.8125,1.52084 3.9375,2.29167 2.12501,0.75 4.29167,0.75 1.27084,0 2.20834,-0.22916 0.95833,-0.22917 1.58333,-0.625 0.64584,-0.41667 0.95834,-0.95834 0.3125,-0.5625 0.3125,-1.20833 0,-0.875 -0.5,-1.5625 -0.5,-0.6875 -1.375,-1.27084 -0.85417,-0.58333 -2.04167,-1.125 -1.1875,-0.54167 -2.5625,-1.10417 -3.50001,-1.45833 -5.22917,-3.5625 -1.70834,-2.10417 -1.70834,-5.08334 0,-2.33333 0.9375,-4 0.9375,-1.6875 2.54167,-2.77083 1.625,-1.08334 3.75,-1.58334 2.125,-0.52083 4.50001,-0.52083 2.33333,0 4.125,0.29166 1.8125,0.27084 3.33333,0.85417 v 6.22917 q -0.75,-0.52083 -1.64583,-0.91666 -0.875,-0.39584 -1.8125,-0.64584 -0.9375,-0.27083 -1.875,-0.39583 -0.91667,-0.125 -1.75,-0.125 -1.14584,0 -2.08334,0.22916 -0.9375,0.20834 -1.58333,0.60417 -0.64584,0.39584 -1,0.95834 -0.35417,0.54166 -0.35417,1.22916 0,0.75 0.39583,1.35417 0.39584,0.58334 1.125,1.125 0.72917,0.52084 1.77084,1.04167 1.04167,0.5 2.35417,1.04167 1.79166,0.75 3.20833,1.60416 1.4375,0.83334 2.45834,1.89584 1.02083,1.0625 1.5625,2.4375 0.54167,1.35417 0.54167,3.16667 0,2.5 -0.95834,4.20834 -0.9375,1.6875 -2.5625,2.75 -1.625,1.04167 -3.79167,1.5 -2.14583,0.45833 -4.54167,0.45833 -2.45833,0 -4.6875,-0.41666 -2.20834,-0.41667 -3.83334,-1.25 z m 37.5417,0.89583 q -1.45834,0.77083 -4.39584,0.77083 -6.95834,0 -6.95834,-7.22917 v -9.77084 h -3.45834 v -4.85417 h 3.45834 v -4.60417 l 6.56251,-1.875 v 6.47917 h 4.79167 v 4.85417 h -4.79167 v 8.62501 q 0,3.33333 2.64583,3.33333 1.04167,0 2.14584,-0.60416 z m 23.97918,0.25 h -6.5625 v -3.25 h -0.10417 q -2.4375,3.77083 -6.52084,3.77083 -7.41667,0 -7.41667,-8.97917 v -12.87501 h 6.56251 v 12.29168 q 0,4.52083 3.58333,4.52083 1.77084,0 2.83334,-1.22916 1.0625,-1.25001 1.0625,-3.37501 v -12.20834 h 6.5625 z m 26.41669,0 h -6.58334 v -2.9375 h -0.0833 q -2.25,3.45833 -6.60417,3.45833 -4,0 -6.4375,-2.8125 -2.4375,-2.83333 -2.4375,-7.89584 0,-5.29167 2.6875,-8.47917 2.6875,-3.1875 7.04167,-3.1875 4.125,0 5.75,2.95833 h 0.0833 v -12.68751 h 6.58334 z m -6.45834,-10.37501 v -1.60417 q 0,-2.08333 -1.20834,-3.45833 -1.20833,-1.375 -3.14583,-1.375 -2.1875,0 -3.41667,1.72917 -1.22917,1.70833 -1.22917,4.70833 0,2.8125 1.1875,4.33334 1.1875,1.52083 3.29167,1.52083 2,0 3.25,-1.60416 1.27084,-1.60417 1.27084,-4.25001 z m 31.16669,1.58334 h -13.91668 q 0.33333,4.64583 5.85417,4.64583 3.52084,0 6.18751,-1.66666 v 4.75 q -2.95834,1.58333 -7.68751,1.58333 -5.16667,0 -8.02084,-2.85416 -2.85417,-2.87501 -2.85417,-8.00001 0,-5.3125 3.08334,-8.41667 3.08333,-3.10417 7.58334,-3.10417 4.66667,0 7.20834,2.77083 2.5625,2.77084 2.5625,7.52084 z m -6.10417,-4.04167 q 0,-4.58334 -3.70834,-4.58334 -1.58333,0 -2.75,1.3125 -1.14584,1.3125 -1.39584,3.27084 z m 30.62502,12.83334 h -6.56251 v -11.85418 q 0,-4.95833 -3.54166,-4.95833 -1.70834,0 -2.81251,1.3125 -1.10416,1.3125 -1.10416,3.33333 v 12.16668 h -6.58334 v -21.33335 h 6.58334 v 3.375 h 0.0833 q 2.35417,-3.89583 6.85417,-3.89583 7.08334,0 7.08334,8.79167 z m 18.10418,-0.25 q -1.45834,0.77083 -4.39584,0.77083 -6.95834,0 -6.95834,-7.22917 v -9.77084 h -3.45834 v -4.85417 h 3.45834 v -4.60417 l 6.56251,-1.875 v 6.47917 h 4.79167 v 4.85417 h -4.79167 v 8.62501 q 0,3.33333 2.64583,3.33333 1.04167,0 2.14584,-0.60416 z m 37.5417,-0.8125 q -3.27084,1.58333 -8.54167,1.58333 -6.87501,0 -10.81251,-4.04167 -3.9375,-4.04167 -3.9375,-10.77084 0,-7.16667 4.41667,-11.62501 4.4375,-4.45833 11.5,-4.45833 4.37501,0 7.37501,1.10417 v 6.47917 q -3,-1.79167 -6.83334,-1.79167 -4.20833,0 -6.79167,2.64583 -2.58334,2.64584 -2.58334,7.16668 0,4.33333 2.43751,6.91667 2.4375,2.5625 6.5625,2.5625 3.9375,0 7.20834,-1.91667 z m 25.04168,1.0625 h -6.5625 v -12.12501 q 0,-4.6875 -3.41667,-4.6875 -1.75,0 -2.83334,1.3125 -1.08333,1.3125 -1.08333,3.33333 v 12.16668 h -6.58334 v -31.58336 h 6.58334 v 13.41668 h 0.0833 q 2.41667,-3.6875 6.56251,-3.6875 7.25,0 7.25,8.75 z m 24.37501,-8.79167 h -13.91667 q 0.33333,4.64583 5.85417,4.64583 3.52083,0 6.1875,-1.66666 v 4.75 q -2.95833,1.58333 -7.6875,1.58333 -5.16667,0 -8.02084,-2.85416 -2.85417,-2.87501 -2.85417,-8.00001 0,-5.3125 3.08334,-8.41667 3.08333,-3.10417 7.58333,-3.10417 4.66667,0 7.20834,2.77083 2.5625,2.77084 2.5625,7.52084 z m -6.10417,-4.04167 q 0,-4.58334 -3.70833,-4.58334 -1.58334,0 -2.75,1.3125 -1.14584,1.3125 -1.39584,3.27084 z m 26.18753,12.06251 q -2.22917,1.29166 -6.4375,1.29166 -4.91667,0 -7.95834,-2.97916 -3.04167,-2.97917 -3.04167,-7.68751 0,-5.4375 3.25,-8.56251 3.27084,-3.14583 8.72917,-3.14583 3.77084,0 5.45834,1 v 5.58334 q -2.0625,-1.54167 -4.60417,-1.54167 -2.83333,0 -4.5,1.66667 -1.64584,1.64583 -1.64584,4.5625 0,2.83333 1.58334,4.45834 1.58333,1.60416 4.35417,1.60416 2.45833,0 4.8125,-1.54166 z m 25.68751,0.77083 h -7.89584 l -6.8125,-10.58334 h -0.0833 v 10.58334 h -6.58334 v -31.58336 h 6.58334 v 20.10418 h 0.0833 l 6.35417,-9.85417 h 7.8125 l -7.64584,10.02084 z"
       id="path74" /><path
       d="m 479.01241,217.04558 -5.27646,19.96425 h -4.9841 l -3.31346,-12.80831 q -0.26452,-1.00239 -0.3202,-2.24145 h -0.0557 q -0.1253,1.36436 -0.36198,2.24145 l -3.39698,12.80831 h -5.19293 l -5.24862,-19.96425 h 4.91449 l 2.81226,13.29558 q 0.18098,0.84924 0.26451,2.28321 h 0.0835 q 0.0557,-1.07199 0.40374,-2.3389 l 3.61974,-13.23989 h 4.81703 l 3.27169,13.40695 q 0.18099,0.73787 0.32021,2.144 h 0.0557 q 0.0557,-1.09984 0.29237,-2.22753 l 2.75657,-13.32342 z m 14.5068,19.96425 h -11.97298 v -19.96425 h 11.51355 v 3.6615 h -7.01672 v 4.44114 h 6.52945 v 3.64759 h -6.52945 v 4.56643 h 7.47615 z m 3.20207,0 v -19.96425 h 7.26732 q 3.3413,0 5.13725,1.22514 1.79595,1.22514 1.79595,3.45267 0,1.61496 -1.09985,2.82618 -1.08592,1.21122 -2.78441,1.68457 v 0.0557 q 2.13007,0.26452 3.39698,1.5732 1.28083,1.30867 1.28083,3.18815 0,2.74265 -1.96301,4.35761 -1.96301,1.60104 -5.36,1.60104 z m 4.49683,-16.6508 v 4.7335 h 1.97694 q 1.3922,0 2.18576,-0.66825 0.80748,-0.68219 0.80748,-1.86556 0,-2.19969 -3.28561,-2.19969 z m 0,8.0748 v 5.26254 h 2.43637 q 1.55927,0 2.43636,-0.72394 0.89101,-0.72395 0.89101,-1.97694 0,-1.1973 -0.87709,-1.87948 -0.86317,-0.68218 -2.42244,-0.68218 z m 38.27178,-11.38825 -6.8775,19.96425 h -5.09548 l -6.79397,-19.96425 h 4.84488 l 4.1627,13.89422 q 0.33413,1.12769 0.40374,1.99086 h 0.0835 q 0.0974,-0.93278 0.43158,-2.04654 l 4.13486,-13.83854 z m 14.77131,14.08913 h -9.29994 q 0.22276,3.10462 3.9121,3.10462 2.35283,0 4.13486,-1.11376 v 3.17423 q -1.97694,1.05808 -5.13725,1.05808 -3.45267,0 -5.35999,-1.90733 -1.90733,-1.92124 -1.90733,-5.34607 0,-3.55013 2.06047,-5.62452 2.06047,-2.07438 5.06763,-2.07438 3.11855,0 4.81704,1.85163 1.71241,1.85164 1.71241,5.02587 z m -4.07916,-2.70088 q 0,-3.06285 -2.47813,-3.06285 -1.05808,0 -1.83771,0.87709 -0.76572,0.87709 -0.93278,2.18576 z m 15.99645,-1.71241 q -0.79355,-0.43159 -1.85163,-0.43159 -1.43397,0 -2.24145,1.05808 -0.80748,1.04416 -0.80748,2.85402 v 6.8079 h -4.39938 v -14.2562 h 4.39938 v 2.64519 h 0.0557 q 1.04416,-2.89579 3.75896,-2.89579 0.69611,0 1.08592,0.16706 z m 1.11377,9.91251 v -3.56405 q 1.08592,0.65434 2.15792,0.97455 1.08592,0.3202 2.04655,0.3202 1.16945,0 1.83771,-0.3202 0.68218,-0.32021 0.68218,-0.97455 0,-0.41766 -0.30628,-0.6961 -0.30629,-0.27844 -0.79356,-0.48728 -0.47335,-0.20883 -1.04416,-0.37589 -0.5708,-0.16707 -1.09984,-0.3759 -0.84925,-0.3202 -1.50358,-0.68218 -0.64042,-0.37589 -1.08593,-0.86317 -0.43158,-0.48727 -0.66825,-1.12768 -0.22276,-0.64042 -0.22276,-1.51751 0,-1.1973 0.51512,-2.06047 0.52904,-0.86316 1.39221,-1.40613 0.87709,-0.55688 1.99085,-0.80748 1.12769,-0.26451 2.33891,-0.26451 0.9467,0 1.92125,0.15314 0.97454,0.13922 1.92124,0.41766 v 3.39699 q -0.83532,-0.48728 -1.79595,-0.72395 -0.9467,-0.2506 -1.86555,-0.2506 -0.43159,0 -0.82141,0.0835 -0.37589,0.0696 -0.66826,0.22276 -0.29236,0.13922 -0.45942,0.37589 -0.16707,0.22275 -0.16707,0.51512 0,0.38982 0.2506,0.66826 0.2506,0.27844 0.65434,0.48727 0.40374,0.19491 0.89101,0.36197 0.50119,0.15315 0.98847,0.32021 0.87709,0.30629 1.58711,0.66826 0.71003,0.36197 1.21122,0.84925 0.51512,0.48727 0.77964,1.14161 0.27844,0.65433 0.27844,1.55927 0,1.26691 -0.55688,2.17184 -0.54296,0.89101 -1.46182,1.46182 -0.90494,0.55688 -2.10223,0.80748 -1.18338,0.26452 -2.46421,0.26452 -2.35283,0 -4.35761,-0.72395 z m 15.7041,-16.13568 q -1.11377,0 -1.82379,-0.65434 -0.71003,-0.66826 -0.71003,-1.62888 0,-0.98847 0.71003,-1.61496 0.71002,-0.62649 1.82379,-0.62649 1.12768,0 1.82379,0.62649 0.71002,0.62649 0.71002,1.61496 0,1.00239 -0.71002,1.64281 -0.69611,0.64041 -1.82379,0.64041 z m 2.17184,16.51158 h -4.39937 v -14.2562 h 4.39937 z m 10.49724,0.34805 q -3.56405,0 -5.61059,-1.99086 -2.03262,-2.00478 -2.03262,-5.4296 0,-3.53621 2.11615,-5.52707 2.11615,-2.00477 5.72197,-2.00477 3.55013,0 5.56883,2.00477 2.0187,1.99086 2.0187,5.27647 0,3.55013 -2.08831,5.61059 -2.07439,2.06047 -5.69413,2.06047 z m 0.11138,-11.58316 q -1.55927,0 -2.42244,1.072 -0.86317,1.07199 -0.86317,3.03501 0,4.10701 3.31345,4.10701 3.16031,0 3.16031,-4.21839 0,-3.99563 -3.18815,-3.99563 z m 24.294,11.23511 h -4.38545 v -7.92166 q 0,-3.31345 -2.36675,-3.31345 -1.14161,0 -1.87948,0.87709 -0.73787,0.87709 -0.73787,2.22753 v 8.13049 h -4.39938 v -14.2562 h 4.39938 v 2.25537 h 0.0557 q 1.5732,-2.60342 4.58037,-2.60342 4.7335,0 4.7335,5.87511 z"
       id="text1"
       style="font-size:28.5124px;stroke-width:2.5257"
       aria-label="WEB Version" /></g><g
     id="g1"
     transform="matrix(1.9018817,0,0,1.9018817,95.999999,95.999999)"><rect
       style="fill:#7ee0d6;fill-opacity:1;stroke-width:0.75"
       id="rect1"
       width="96.000023"
       height="96.000023"
       x="0"
       y="-2.220446e-16"
       rx="12.000003"
       ry="12.000003" /><path
       style="clip-rule:nonzero;fill:#231f1f;fill-opacity:1;fill-rule:nonzero;stroke:none;stroke-width:0.251603"
       d="M 63.978695,74.308649 H 32.839914 V 44.636242 h 31.138781 v 29.672407"
       id="path76-6"
       clip-path="url(#clipPath131)" /><path
       style="clip-rule:nonzero;fill:#231f1f;fill-opacity:1;fill-rule:nonzero;stroke:none;stroke-width:0.251603"
       d="M 33.407004,73.740578 H 63.411607 V 45.203329 H 33.407004 Z M 63.978695,74.87672 H 32.839914 c -0.316468,0 -0.568071,-0.254552 -0.568071,-0.568071 V 44.636242 c 0,-0.315488 0.251603,-0.568074 0.568071,-0.568074 h 31.138781 c 0.313522,0 0.568073,0.252586 0.568073,0.568074 v 29.672407 c 0,0.313519 -0.254551,0.568071 -0.568073,0.568071"
       id="path77-8"
       clip-path="url(#clipPath130)" /><path
       style="clip-rule:nonzero;fill:#231f1f;fill-opacity:1;fill-rule:nonzero;stroke:none;stroke-width:0.251603"
       d="m 68.807305,83.634657 c -1.765151,1.316981 -3.65905,2.470816 -5.659095,3.435949 -0.152338,0.07273 -0.302709,0.145457 -0.454065,0.218185 -0.154303,0.06978 -0.309587,0.140545 -0.463893,0.20836 -2.074738,0.931714 -4.255623,1.664902 -6.519063,2.173021 -2.479663,0.563158 -5.061539,0.858987 -7.712213,0.858987 -5.068418,0 -9.884249,-1.083071 -14.228328,-3.032008 -0.308606,-0.135629 -0.618195,-0.279123 -0.919922,-0.426545 -2.000043,-0.967098 -3.891979,-2.118968 -5.656144,-3.435949 0.308605,-6.894505 3.971586,-12.91626 9.396768,-16.472113 3.276733,-2.150418 7.195248,-3.399585 11.407626,-3.399585 0.642767,0 1.278655,0.02752 1.905694,0.08649 2.034444,0.183789 3.983381,0.660457 5.806519,1.389713 1.301256,0.514998 2.538631,1.162678 3.696396,1.923384 1.185285,0.776428 2.28703,1.670798 3.28656,2.665416 1.107643,1.10371 2.091447,2.330273 2.928813,3.656101 1.871295,2.963211 3.016284,6.431594 3.184347,10.150596"
       id="path79-2"
       clip-path="url(#clipPath141)" /><path
       style="clip-rule:nonzero;fill:#231f1f;fill-opacity:1;fill-rule:nonzero;stroke:none;stroke-width:0.251603"
       d="m 27.777394,83.360448 c 1.669817,1.223614 3.458556,2.297842 5.321004,3.19909 0.292881,0.143492 0.597557,0.284034 0.901249,0.417698 4.414839,1.98039 9.12158,2.983852 13.999329,2.983852 2.566151,0 5.118542,-0.284037 7.585428,-0.844245 2.190712,-0.493378 4.348009,-1.210838 6.414887,-2.136658 0.154303,-0.0688 0.306641,-0.138578 0.457995,-0.209341 l 0.445218,-0.213273 c 1.857535,-0.895351 3.647256,-1.971541 5.321005,-3.197123 -0.204428,-3.397618 -1.264895,-6.698922 -3.082133,-9.573678 -0.809846,-1.285532 -1.7681,-2.482612 -2.849204,-3.556837 -0.973979,-0.969063 -2.048205,-1.84181 -3.195158,-2.592685 -1.13811,-0.746946 -2.345999,-1.375952 -3.595166,-1.871295 -1.805445,-0.722377 -3.705244,-1.176441 -5.649268,-1.351383 -0.590675,-0.05405 -1.212802,-0.08354 -1.853604,-0.08354 -3.964708,0 -7.799683,1.144007 -11.097052,3.306218 -5.349506,3.505728 -8.745161,9.367283 -9.12453,15.7232 z m 20.221582,7.735801 c -5.038933,0 -9.902923,-1.034912 -14.462238,-3.081152 -0.313522,-0.138577 -0.629007,-0.286001 -0.935648,-0.433423 -2.016754,-0.976928 -3.948984,-2.150418 -5.747548,-3.492955 -0.149389,-0.111057 -0.233913,-0.289932 -0.227034,-0.478634 0.306641,-6.835534 3.914585,-13.161965 9.653288,-16.922245 3.481159,-2.284082 7.53432,-3.492952 11.71918,-3.492952 0.675201,0 1.333693,0.02948 1.957783,0.08845 2.050169,0.186737 4.058077,0.665371 5.962787,1.429026 1.321898,0.521876 2.60055,1.18725 3.799596,1.975473 1.209854,0.792156 2.345996,1.714043 3.374029,2.738144 1.140075,1.133196 2.153367,2.398088 3.009405,3.754385 1.973509,3.124392 3.103756,6.730372 3.271819,10.429716 0.0088,0.185754 -0.07666,0.367577 -0.228999,0.478634 -1.800532,1.34647 -3.735711,2.520943 -5.752463,3.492955 l -0.454064,0.220152 c -0.165115,0.07469 -0.322366,0.145457 -0.478634,0.215239 -2.132728,0.956286 -4.362753,1.699299 -6.624228,2.207418 -2.547477,0.578883 -5.186357,0.871766 -7.837031,0.871766"
       id="path81-9"
       clip-path="url(#clipPath117)" /><path
       style="clip-rule:nonzero;fill:#ffffff;fill-opacity:1;fill-rule:nonzero;stroke:none;stroke-width:0.251603"
       d="m 59.098979,66.962047 c -0.09533,-0.06094 -0.190667,-0.119904 -0.287967,-0.176907 l -0.102213,-0.06094 -0.157252,-0.09533 -0.154303,-0.0914 c -0.0403,-0.02259 -0.08158,-0.04521 -0.124818,-0.06978 -0.06388,-0.03636 -0.131699,-0.0747 -0.197548,-0.11106 -0.181823,-0.100249 -0.365611,-0.200495 -0.554313,-0.29583 -0.04521,-0.02458 -0.09238,-0.04718 -0.138578,-0.06978 -0.06978,-0.03636 -0.140543,-0.07273 -0.213271,-0.107127 -0.07666,-0.03833 -0.154303,-0.0747 -0.233913,-0.114009 -0.08649,-0.0403 -0.171993,-0.08157 -0.258481,-0.119904 L 56.39032,65.520245 c -0.218187,-0.09533 -0.43834,-0.187718 -0.663406,-0.277155 -0.08649,-0.03636 -0.172977,-0.06781 -0.256516,-0.102214 -0.114009,-0.04226 -0.227034,-0.0855 -0.343005,-0.126785 -0.0069,-0.002 -0.01376,-0.0049 -0.02259,-0.0088 -0.111057,-0.04128 -0.222117,-0.07961 -0.336126,-0.117939 -0.09042,-0.03243 -0.183786,-0.06388 -0.277156,-0.09337 -0.05405,-0.01867 -0.113025,-0.03636 -0.170028,-0.05405 -0.08845,-0.03047 -0.176907,-0.057 -0.265362,-0.08452 -0.115972,-0.0344 -0.22998,-0.06781 -0.345954,-0.100246 -0.09926,-0.02949 -0.201479,-0.05897 -0.306641,-0.08354 -0.09533,-0.02752 -0.192632,-0.05209 -0.289932,-0.07764 -0.0098,-0.002 -0.02063,-0.0039 -0.0344,-0.0069 -0.07469,-0.01965 -0.154303,-0.03833 -0.231945,-0.05602 -0.0403,-0.0118 -0.08354,-0.02063 -0.12482,-0.03243 l -0.218187,-0.04718 c -0.324331,-0.07273 -0.653576,-0.13661 -0.984788,-0.193616 -0.07764,-0.01082 -0.152338,-0.02456 -0.22998,-0.03636 -0.04521,-0.0088 -0.09042,-0.01573 -0.135629,-0.02259 -0.05504,-0.0069 -0.107128,-0.01572 -0.159219,-0.02262 -0.06782,-0.0089 -0.136611,-0.02063 -0.20246,-0.02752 -0.04521,-0.0059 -0.09239,-0.01278 -0.138578,-0.01769 -0.07273,-0.0089 -0.147424,-0.02063 -0.22212,-0.02752 -0.06585,-0.0089 -0.133664,-0.01572 -0.202459,-0.02259 -0.106146,-0.01082 -0.215239,-0.02259 -0.324334,-0.03145 -0.627039,-0.05897 -1.262927,-0.08649 -1.905694,-0.08649 -4.212377,0 -8.130893,1.249167 -11.407625,3.399585 0.06094,0.458978 0.149389,0.910092 0.263398,1.35138 1.277668,4.963256 5.782929,8.631152 11.144227,8.631152 3.347496,0 6.358865,-1.429025 8.461124,-3.706225 1.569568,-1.698319 2.630036,-3.87134 2.947485,-6.276307 -0.102213,-0.06781 -0.204427,-0.133664 -0.308606,-0.200497"
       id="path83-8"
       clip-path="url(#clipPath119)" /><path
       style="clip-rule:nonzero;fill:#231f1f;fill-opacity:1;fill-rule:nonzero;stroke:none;stroke-width:0.251603"
       d="m 37.206597,67.441664 c 0.05209,0.311555 0.117939,0.624093 0.197548,0.930734 1.244254,4.830575 5.60209,8.204608 10.594831,8.204608 3.045768,0 5.977531,-1.285534 8.043423,-3.524406 1.455562,-1.575465 2.403004,-3.510642 2.749939,-5.610936 -0.09042,-0.05897 -0.178874,-0.114006 -0.267328,-0.166095 l -0.533672,-0.315487 c -0.06192,-0.03342 -0.127766,-0.07273 -0.188702,-0.106146 -0.176909,-0.09828 -0.356765,-0.193616 -0.538588,-0.286983 -0.04324,-0.02259 -0.06978,-0.03637 -0.0973,-0.04914 l -0.03833,-0.01867 c -0.07076,-0.03636 -0.134648,-0.06978 -0.202462,-0.102213 -0.05897,-0.02949 -0.107127,-0.05209 -0.156268,-0.0747 l -0.114009,-0.05504 c -0.07076,-0.03342 -0.140542,-0.06781 -0.211306,-0.09927 l -0.286,-0.12972 c -0.208358,-0.09042 -0.419666,-0.178875 -0.639818,-0.268312 -0.05995,-0.02458 -0.107128,-0.0403 -0.155285,-0.06094 l -0.106146,-0.04029 c -0.09828,-0.03931 -0.206392,-0.07961 -0.318433,-0.118922 -0.01376,-0.0039 -0.02949,-0.01082 -0.05209,-0.01965 -0.09926,-0.03637 -0.199511,-0.07076 -0.299759,-0.105162 -0.09337,-0.03145 -0.178875,-0.0629 -0.267328,-0.09042 L 54.1485,65.279464 c -0.08649,-0.02949 -0.165114,-0.05209 -0.244724,-0.07666 l -0.05209,-0.01573 c -0.09828,-0.02948 -0.193616,-0.057 -0.290916,-0.08452 -0.102213,-0.02949 -0.195581,-0.05701 -0.288948,-0.07961 -0.0089,-0.002 -0.01572,-0.002 -0.02458,-0.0069 -0.08845,-0.02458 -0.181824,-0.04718 -0.275191,-0.07273 -0.01965,-0.002 -0.02259,-0.002 -0.04226,-0.0088 -0.05995,-0.01573 -0.118922,-0.02949 -0.179855,-0.04325 l -0.03145,-0.0088 c -0.0098,0 -0.01867,-0.0049 -0.02555,-0.0049 l -0.04029,-0.01082 c -0.02259,-0.0049 -0.04619,-0.0118 -0.06585,-0.01573 l -0.202452,-0.04526 C 52.079657,64.736936 51.767121,64.676 51.424116,64.618997 l -0.216222,-0.03636 c -0.01082,0 -0.02063,-0.002 -0.02949,-0.0049 -0.03145,-0.0059 -0.06388,-0.01082 -0.09337,-0.01573 -0.03636,-0.0039 -0.06978,-0.0089 -0.104179,-0.01376 l -0.14251,-0.01965 c -0.0344,-0.0069 -0.0688,-0.0118 -0.102213,-0.01376 -0.0118,0 -0.02063,-0.0029 -0.03243,-0.0049 -0.03342,-0.0039 -0.06978,-0.01082 -0.104178,-0.01376 l -0.07961,-0.01082 c -0.04718,-0.0049 -0.09533,-0.0118 -0.14251,-0.01573 -0.08256,-0.0118 -0.143492,-0.01671 -0.204428,-0.02357 -0.107127,-0.01082 -0.211306,-0.02259 -0.316468,-0.03145 -0.594608,-0.05405 -1.216735,-0.08354 -1.857537,-0.08354 -3.841855,0 -7.565771,1.074225 -10.792379,3.110634 z m 10.792379,10.2705 c -5.512653,0 -10.322589,-3.723916 -11.694609,-9.057697 -0.119906,-0.465857 -0.213273,-0.942526 -0.276174,-1.41723 -0.03047,-0.215238 0.06781,-0.429493 0.251603,-0.549397 3.481159,-2.284082 7.532355,-3.492952 11.71918,-3.492952 0.675201,0 1.335658,0.02948 1.957783,0.08845 0.109095,0.0098 0.223101,0.02063 0.331212,0.0344 0.07273,0.0069 0.148406,0.01376 0.218188,0.02259 0.04128,0.0049 0.102213,0.0118 0.16413,0.02063 l 0.05602,0.0069 c 0.03636,0.002 0.08845,0.0118 0.138578,0.01769 0.04324,0.0049 0.08845,0.0118 0.134647,0.01867 l 0.222118,0.03145 c 0.0069,0 0.03145,0.0049 0.03636,0.0049 0.04324,0.0069 0.08452,0.01376 0.126785,0.02259 0.03931,0.0049 0.07568,0.0118 0.114006,0.01573 l 0.102214,0.01572 c 0.37642,0.06585 0.708616,0.129734 1.026068,0.202462 l 0.21622,0.04816 0.03341,0.0059 0.04128,0.0118 c 0.02259,0.0049 0.04816,0.0118 0.07076,0.01769 l 0.01965,0.0049 c 0.06585,0.01376 0.129734,0.02949 0.193616,0.04816 0.01573,0.002 0.02949,0.0039 0.04325,0.0089 0.106143,0.02752 0.206392,0.05209 0.301726,0.07961 0.111058,0.02654 0.220153,0.05897 0.324331,0.08845 0.09337,0.02458 0.195581,0.057 0.302709,0.08846 l 0.04324,0.0118 c 0.002,0.002 0.01965,0.0059 0.02259,0.0059 0.08551,0.02752 0.171996,0.05504 0.260449,0.08452 l 0.171012,0.05405 c 0.09042,0.02948 0.187718,0.06192 0.284034,0.09533 0.113025,0.03931 0.228999,0.07961 0.344973,0.122852 0.0089,0.002 0.01769,0.0049 0.02653,0.0088 0.122855,0.04324 0.233912,0.08649 0.345953,0.127769 l 0.104181,0.04029 c 0.05405,0.02357 0.113025,0.04619 0.170028,0.07076 0.218188,0.08452 0.445219,0.181823 0.670285,0.279123 l 0.292881,0.131696 c 0.0747,0.0344 0.154303,0.07076 0.231947,0.10713 l 0.119904,0.05897 c 0.05405,0.02458 0.107127,0.05209 0.161184,0.07961 0.06585,0.02948 0.143492,0.06781 0.218185,0.109092 l 0.02752,0.01376 c 0.0403,0.01769 0.08354,0.03833 0.121869,0.06094 0.181823,0.09042 0.370525,0.195581 0.559227,0.297794 0.06781,0.03833 0.138578,0.07666 0.204428,0.11499 l 0.546448,0.32335 c 0.100248,0.05897 0.202462,0.121869 0.304676,0.185753 0.104178,0.06781 0.211308,0.136613 0.318435,0.206392 0.178872,0.120888 0.274207,0.332194 0.246689,0.547432 -0.326298,2.472784 -1.396593,4.750966 -3.092944,6.587864 -2.282117,2.470817 -5.517569,3.887063 -8.878824,3.887063"
       id="path85-1"
       clip-path="url(#clipPath112)" /><path
       style="clip-rule:nonzero;fill:#ffffff;fill-opacity:1;fill-rule:nonzero;stroke:none;stroke-width:0.251603"
       d="m 42.930558,68.027428 v -9.975654 c 0,-2.522905 2.061964,-4.58487 4.58487,-4.58487 h 0.968082 c 2.522905,0 4.586832,2.061965 4.586832,4.58487 v 9.975654 c 0,2.522906 -2.063927,4.589782 -4.586832,4.589782 h -0.968082"
       id="path87-1"
       clip-path="url(#clipPath111)" /><path
       style="clip-rule:nonzero;fill:#231f1f;fill-opacity:1;fill-rule:nonzero;stroke:none;stroke-width:0.251603"
       d="m 48.48351,73.184299 h -0.968082 c -0.31352,0 -0.56709,-0.254551 -0.56709,-0.567089 0,-0.31352 0.25357,-0.568071 0.56709,-0.568071 h 0.968082 c 2.216264,0 4.018761,-1.805446 4.018761,-4.021711 v -9.975654 c 0,-2.216264 -1.802497,-4.016796 -4.018761,-4.016796 h -0.968082 c -2.216265,0 -4.016797,1.800532 -4.016797,4.016796 v 9.975654 c 0,0.31352 -0.254551,0.568071 -0.568073,0.568071 -0.312536,0 -0.567087,-0.254551 -0.567087,-0.568071 v -9.975654 c 0,-2.840357 2.311599,-5.151957 5.151957,-5.151957 h 0.968082 c 2.842322,0 5.153922,2.3116 5.153922,5.151957 v 9.975654 c 0,2.843307 -2.3116,5.156871 -5.153922,5.156871"
       id="path89-0"
       clip-path="url(#clipPath118)" /><path
       style="clip-rule:nonzero;fill:#ffffff;fill-opacity:1;fill-rule:nonzero;stroke:none;stroke-width:0.251603"
       d="m 60.363874,54.205006 c 0,0 2.375481,-0.807881 3.891979,-3.455607 1.649175,-2.875741 0.613281,-4.667426 0.285999,-5.055641 -0.892402,-1.057516 -2.270319,-0.378385 -2.497353,0 -0.227031,0.379369 -3.515556,6.351986 -1.680625,8.511248"
       id="path91-8"
       clip-path="url(#clipPath114)" /><path
       style="clip-rule:nonzero;fill:#231f1f;fill-opacity:1;fill-rule:nonzero;stroke:none;stroke-width:0.251603"
       d="m 63.354602,45.693758 c -0.403938,0 -0.762671,0.223101 -0.831467,0.306641 -0.52876,0.881593 -2.859031,5.527396 -1.94599,7.494026 0.697805,-0.344973 2.160245,-1.237375 3.186311,-3.027095 1.62559,-2.833479 0.400011,-4.344079 0.344973,-4.407961 -0.206393,-0.244724 -0.454065,-0.365611 -0.753827,-0.365611 z m -2.990728,9.079319 c -0.166098,0 -0.324334,-0.07076 -0.433426,-0.200497 -2.207421,-2.599567 1.589225,-9.105853 1.627555,-9.171703 0.250619,-0.412787 0.987736,-0.84228 1.796599,-0.84228 0.637853,0 1.199045,0.268312 1.623625,0.769552 0.672249,0.79707 1.380865,2.895396 -0.228999,5.704303 -1.605932,2.800064 -4.096406,3.674776 -4.201569,3.71114 -0.06093,0.01965 -0.122852,0.02949 -0.183785,0.02949"
       id="path93-4"
       clip-path="url(#clipPath113)" /><path
       style="clip-rule:nonzero;fill:#ffffff;fill-opacity:1;fill-rule:nonzero;stroke:none;stroke-width:0.251603"
       d="m 36.252276,54.205006 c 0,0 -2.375482,-0.807881 -3.891979,-3.455607 -1.65114,-2.875741 -0.615247,-4.667426 -0.287967,-5.055641 0.892404,-1.057516 2.270321,-0.378385 2.497353,0 0.227033,0.379369 3.517523,6.351986 1.682593,8.511248"
       id="path95-3"
       clip-path="url(#clipPath110)" /><path
       style="clip-rule:nonzero;fill:#231f1f;fill-opacity:1;fill-rule:nonzero;stroke:none;stroke-width:0.251603"
       d="m 33.261547,45.693758 c -0.299761,0 -0.547434,0.120887 -0.753826,0.365611 -0.05405,0.06388 -1.280618,1.574482 0.343005,4.407961 1.035896,1.80348 2.491457,2.689004 3.188279,3.02906 0.91304,-1.96663 -1.417231,-6.614398 -1.954835,-7.509752 -0.05897,-0.06978 -0.417701,-0.29288 -0.822623,-0.29288 z m 2.990729,9.079319 c -0.06093,0 -0.122853,-0.0098 -0.183786,-0.02949 -0.104181,-0.03636 -2.595637,-0.911076 -4.203534,-3.71114 -1.606916,-2.808907 -0.899283,-4.907233 -0.227033,-5.704303 0.424579,-0.50124 0.985771,-0.769552 1.623624,-0.769552 0.808863,0 1.546962,0.429493 1.7966,0.84228 0.03833,0.06585 3.834975,6.572136 1.628538,9.171703 -0.112044,0.129734 -0.270276,0.200497 -0.434409,0.200497"
       id="path97-8"
       clip-path="url(#clipPath109)" /><path
       style="clip-rule:nonzero;fill:#ffffff;fill-opacity:1;fill-rule:nonzero;stroke:none;stroke-width:0.251603"
       d="m 62.691198,45.235763 c 0,-8.701915 -6.42373,-15.759567 -14.351182,-15.759567 -7.925485,0 -14.35413,7.057652 -14.35413,15.759567 0,8.705845 6.428645,17.80482 14.35413,17.80482 7.447834,0 14.351182,-9.171703 14.351182,-17.80482"
       id="path99-7"
       clip-path="url(#clipPath115)" /><path
       style="clip-rule:nonzero;fill:#231f1f;fill-opacity:1;fill-rule:nonzero;stroke:none;stroke-width:0.251603"
       d="m 48.340016,30.043286 c -7.60017,0 -13.786059,6.817841 -13.786059,15.192477 0,4.15046 1.489961,8.458175 4.087563,11.821393 2.697847,3.492955 6.142643,5.416339 9.698496,5.416339 3.324891,0 6.794256,-1.987268 9.523556,-5.450735 2.706694,-3.434968 4.260537,-7.731869 4.260537,-11.786997 0,-8.374636 -6.183924,-15.192477 -13.784093,-15.192477 z m 0,33.56537 c -8.537783,0 -14.921217,-9.698498 -14.921217,-18.372893 0,-9.001675 6.694005,-16.327638 14.921217,-16.327638 8.227211,0 14.919253,7.325963 14.919253,16.327638 0,9.273916 -7.388863,18.372893 -14.919253,18.372893"
       id="path101-3"
       clip-path="url(#clipPath116)" /><path
       style="clip-rule:nonzero;fill:#231f1f;fill-opacity:1;fill-rule:nonzero;stroke:none;stroke-width:0.251603"
       d="m 59.610047,44.969419 c -0.104179,0 -0.209341,-0.02949 -0.304676,-0.08846 -4.051196,-2.581876 -7.607048,-0.44227 -7.754472,-0.349884 -0.26831,0.164131 -0.617212,0.08256 -0.781345,-0.183788 -0.165114,-0.265363 -0.08354,-0.615247 0.179858,-0.781345 0.174942,-0.106143 4.29592,-2.61824 8.965311,0.356765 0.265362,0.168063 0.34497,0.519915 0.174941,0.78331 -0.109092,0.171012 -0.290915,0.263398 -0.479617,0.263398"
       id="path103-7"
       clip-path="url(#clipPath129)" /><path
       style="clip-rule:nonzero;fill:#231f1f;fill-opacity:1;fill-rule:nonzero;stroke:none;stroke-width:0.251603"
       d="m 57.87733,47.485446 c -0.102214,0 -0.204428,-0.02654 -0.297795,-0.08354 -2.417746,-1.489958 -4.295919,-0.05012 -4.314593,-0.03636 -0.246689,0.192635 -0.603454,0.149389 -0.799035,-0.09533 -0.192632,-0.245708 -0.149389,-0.604438 0.09828,-0.79707 0.09926,-0.08157 2.526835,-1.939109 5.610936,-0.03636 0.267327,0.163147 0.349883,0.513033 0.185753,0.781345 -0.109095,0.171993 -0.292881,0.267328 -0.48355,0.267328"
       id="path105-7"
       clip-path="url(#clipPath126)" /><path
       style="clip-rule:nonzero;fill:#231f1f;fill-opacity:1;fill-rule:nonzero;stroke:none;stroke-width:0.251603"
       d="m 38.15797,47.485446 c -0.190667,0 -0.377404,-0.09534 -0.483548,-0.267328 -0.166098,-0.268312 -0.08256,-0.618198 0.183788,-0.781345 3.083114,-1.902745 5.510688,-0.04324 5.612901,0.03636 0.247673,0.192632 0.288951,0.551362 0.09533,0.79707 -0.192635,0.244721 -0.5494,0.287967 -0.794121,0.0973 -0.07961,-0.06094 -1.926333,-1.439837 -4.317542,0.0344 -0.09239,0.05701 -0.1946,0.08354 -0.296813,0.08354"
       id="path107-9"
       clip-path="url(#clipPath127)" /><path
       style="clip-rule:nonzero;fill:#231f1f;fill-opacity:1;fill-rule:nonzero;stroke:none;stroke-width:0.251603"
       d="m 44.706521,44.863273 c -0.117939,0 -0.237845,-0.03636 -0.338091,-0.11106 -0.143495,-0.10516 -3.50868,-2.529785 -7.757422,-0.29583 -0.277158,0.147424 -0.622128,0.04128 -0.767587,-0.235877 -0.145456,-0.277156 -0.04029,-0.622126 0.238826,-0.767585 4.900358,-2.577943 8.80118,0.265363 8.965313,0.388216 0.249636,0.188702 0.301725,0.542518 0.113023,0.795105 -0.111057,0.149389 -0.281086,0.227031 -0.454062,0.227031"
       id="path109-1"
       clip-path="url(#clipPath128)" /><path
       style="clip-rule:nonzero;fill:#231f1f;fill-opacity:1;fill-rule:nonzero;stroke:none;stroke-width:0.251603"
       d="m 48.220112,54.050703 c -0.616231,0 -1.079139,-0.218187 -1.10666,-0.231947 -0.281085,-0.135629 -0.399024,-0.476669 -0.263395,-0.757757 0.136613,-0.282069 0.472736,-0.400008 0.753824,-0.266344 0.02063,0.0098 0.604438,0.268309 1.1558,0.0029 0.282072,-0.136612 0.620163,-0.01867 0.758741,0.263396 0.136613,0.281088 0.01867,0.622128 -0.265363,0.757757 -0.35873,0.174941 -0.71746,0.231947 -1.032947,0.231947"
       id="path111-9"
       clip-path="url(#clipPath124)" /><path
       style="clip-rule:nonzero;fill:#231f1f;fill-opacity:1;fill-rule:nonzero;stroke:none;stroke-width:0.251603"
       d="m 47.981285,56.675822 c -1.564654,0 -2.611359,-0.467825 -2.675243,-0.497308 -0.286002,-0.129733 -0.410819,-0.467825 -0.279123,-0.751859 0.129734,-0.284037 0.46586,-0.410822 0.748913,-0.281088 0.03636,0.01573 2.035425,0.882575 4.537692,-0.01671 0.294848,-0.106144 0.620163,0.04816 0.726307,0.34104 0.107127,0.297794 -0.04718,0.622128 -0.343005,0.726306 -0.996583,0.35873 -1.923385,0.479618 -2.715541,0.479618"
       id="path113-3"
       clip-path="url(#clipPath139)" /><path
       style="clip-rule:nonzero;fill:#231f1f;fill-opacity:1;fill-rule:nonzero;stroke:none;stroke-width:0.251603"
       d="m 56.056159,48.273669 c 0,1.055551 -0.610333,1.914538 -1.367106,1.914538 -0.755792,0 -1.367108,-0.858987 -1.367108,-1.914538 0,-1.060468 0.611316,-1.91847 1.367108,-1.91847 0.756773,0 1.367106,0.858002 1.367106,1.91847"
       id="path115-4"
       clip-path="url(#clipPath135)" /><path
       style="clip-rule:nonzero;fill:#231f1f;fill-opacity:1;fill-rule:nonzero;stroke:none;stroke-width:0.251603"
       d="m 42.779204,48.273669 c 0,1.055551 -0.613282,1.914538 -1.367106,1.914538 -0.756776,0 -1.370057,-0.858987 -1.370057,-1.914538 0,-1.060468 0.613281,-1.91847 1.370057,-1.91847 0.753824,0 1.367106,0.858002 1.367106,1.91847"
       id="path117-2"
       clip-path="url(#clipPath134)" /><path
       style="clip-rule:nonzero;fill:#231f1f;fill-opacity:1;fill-rule:nonzero;stroke:none;stroke-width:0.251603"
       d="M 63.978695,65.452431 63.763456,42.614574 c 0.199513,-1.037861 0.351851,-2.895396 0.01769,-6.004065 -0.610333,-5.669907 -4.550471,-14.569368 -14.139875,-13.434208 -3.955863,-0.87766 -15.984632,0.76562 -16.764993,16.968438 h -0.03637 v 1.334674 c -0.0029,0.117939 -0.0049,0.235877 -0.0049,0.3548 l 0.0049,0.0039 v 23.614288 h 4.545557 V 44.00723 c 1.053587,0.346935 2.300789,0.681096 3.751437,0.953337 0.263395,-4.075767 1.01034,-7.137261 1.01034,-7.137261 -0.585761,3.265921 0.68601,5.442873 0.741048,7.421298 4.070854,0.554311 9.482276,0.594608 16.399385,-0.64768 l 0.14251,20.855502 h 4.548504"
       id="path119-3"
       clip-path="url(#clipPath142)" /><path
       style="clip-rule:nonzero;fill:#231f1f;fill-opacity:1;fill-rule:nonzero;stroke:none;stroke-width:0.251603"
       d="m 59.994332,64.88436 h 3.410394 L 63.195385,42.619488 c 0,-0.03636 0.0049,-0.07469 0.0118,-0.114007 0.185753,-0.967097 0.340056,-2.765664 0.01082,-5.833056 -0.485515,-4.50526 -3.60598,-13.0283 -11.942283,-13.0283 -0.50812,0 -1.036878,0.0344 -1.568585,0.09533 -0.06388,0.0098 -0.126785,0.0049 -0.188702,-0.0088 -0.515,-0.113025 -1.148921,-0.174943 -1.828052,-0.174943 -6.203578,0 -13.656324,4.350958 -14.248966,16.615605 -0.002,0.06192 -0.01376,0.120888 -0.0344,0.174945 l -0.0039,1.276684 v 0.14939 c 0.002,0.02063 0.0039,0.04324 0.0039,0.06585 V 64.88436 h 3.411377 V 44.007235 c 0,-0.181823 0.08846,-0.351851 0.233913,-0.458979 0.149389,-0.107127 0.338091,-0.136613 0.510086,-0.07961 0.958252,0.315487 1.985301,0.587728 3.054613,0.810829 0.29288,-3.751436 0.949407,-6.469925 0.978893,-6.589828 0.07273,-0.297795 0.367574,-0.486497 0.667336,-0.422615 0.301727,0.06388 0.497307,0.3548 0.443253,0.656527 -0.356765,1.987269 0.01965,3.567648 0.351851,4.964239 0.152336,0.637851 0.296811,1.248186 0.36266,1.852621 4.637944,0.572004 9.994328,0.334159 15.766446,-0.701735 0.166098,-0.02949 0.334161,0.01376 0.463892,0.119904 0.12875,0.107127 0.204428,0.266344 0.204428,0.434407 z m 3.984363,1.136142 h -4.548504 c -0.310573,0 -0.565125,-0.252584 -0.56709,-0.566106 L 58.724524,45.272127 c -3.551923,0.603454 -6.948559,0.90813 -10.10735,0.90813 -2.025601,0 -3.978468,-0.12482 -5.80652,-0.37249 -0.27519,-0.03833 -0.481582,-0.270277 -0.490429,-0.547433 -0.01573,-0.644731 -0.179855,-1.323862 -0.365609,-2.112088 -0.02259,-0.08845 -0.04324,-0.176907 -0.06388,-0.267328 -0.07469,0.662424 -0.138578,1.373987 -0.185753,2.116019 -0.0118,0.163149 -0.0914,0.313519 -0.220153,0.413768 -0.127766,0.0973 -0.29288,0.138577 -0.4521,0.108111 -1.069311,-0.201478 -2.103239,-0.449151 -3.079184,-0.737118 v 20.670733 c 0,0.313522 -0.254551,0.568071 -0.568071,0.568071 h -4.545557 c -0.316468,0 -0.568071,-0.254549 -0.568071,-0.568071 V 41.908906 c -0.0049,-0.02555 -0.0049,-0.05012 -0.0049,-0.07469 v -0.22998 l 0.0049,-0.131699 v -1.327795 c 0,-0.08256 0.01573,-0.159217 0.04521,-0.22998 0.34104,-6.258617 2.350912,-10.985995 5.981461,-14.054367 3.673791,-3.105722 7.790837,-3.439882 9.391855,-3.439882 0.722376,0 1.403472,0.06388 1.978422,0.181823 0.544486,-0.06094 1.085037,-0.09337 1.606916,-0.09337 3.899842,0 7.235542,1.727802 9.646409,4.998637 2.588755,3.507696 3.257075,7.493042 3.425138,9.041971 0.338091,3.151915 0.18182,5.056625 -0.01573,6.115125 l 0.215238,22.780854 c 0,0.152338 -0.05897,0.297794 -0.166098,0.406889 -0.106146,0.106144 -0.251603,0.168061 -0.401975,0.168061"
       id="path121-7"
       clip-path="url(#clipPath143)" /><path
       style="clip-rule:nonzero;fill:#ffffff;fill-opacity:1;fill-rule:nonzero;stroke:none;stroke-width:0.251603"
       d="M 67.480493,40.852371 H 66.572366 V 21.095665 h 0.908127 v 19.756706"
       id="path123-8"
       clip-path="url(#clipPath120)" /><path
       style="clip-rule:nonzero;fill:#231f1f;fill-opacity:1;fill-rule:nonzero;stroke:none;stroke-width:0.251603"
       d="m 67.480493,41.420445 h -0.908127 c -0.313522,0 -0.568074,-0.254552 -0.568074,-0.568074 V 21.095665 c 0,-0.312538 0.254552,-0.567089 0.568074,-0.567089 h 0.908127 c 0.313522,0 0.568071,0.254551 0.568071,0.567089 v 19.756706 c 0,0.313522 -0.254549,0.568074 -0.568071,0.568074"
       id="path125-8"
       clip-path="url(#clipPath121)" /><path
       style="clip-rule:nonzero;fill:#ffffff;fill-opacity:1;fill-rule:nonzero;stroke:none;stroke-width:0.251603"
       d="m 66.572366,39.263148 c 0,0 -2.857067,2.234939 0.09533,4.466929 l -0.301727,-0.756773 0.755792,0.909111 h 0.568071 c 0,0 2.441334,-3.030044 -0.209341,-4.619267 h -0.908127"
       id="path127-8"
       clip-path="url(#clipPath123)" /><path
       style="clip-rule:nonzero;fill:#231f1f;fill-opacity:1;fill-rule:nonzero;stroke:none;stroke-width:0.251603"
       d="m 67.387126,43.314344 h 0.0118 c 0.292883,-0.431459 0.885523,-1.444751 0.719428,-2.354843 -0.07863,-0.4521 -0.342024,-0.821641 -0.801003,-1.128282 h -0.528758 c -0.282069,0.265363 -0.899283,0.937613 -0.890437,1.720922 0.002,0.297797 0.09927,0.592643 0.287967,0.88061 0.216223,-0.07174 0.463893,-0.0059 0.613282,0.174944 z m 0.302708,1.135161 h -0.568071 c -0.147424,0 -0.286002,-0.057 -0.39018,-0.156268 -0.02063,0.002 -0.03243,0.0069 -0.06192,0.0039 h -0.002 c -0.119904,0 -0.240791,-0.03833 -0.343005,-0.11499 -1.028033,-0.77938 -1.555808,-1.662938 -1.561705,-2.62512 -0.01376,-1.571535 1.400523,-2.69392 1.459491,-2.741095 0.100249,-0.07764 0.225067,-0.120885 0.349887,-0.120885 h 0.908127 c 0.102213,0 0.204427,0.02752 0.292881,0.08256 0.82459,0.492394 1.316984,1.162678 1.465389,1.986285 0.301727,1.701267 -1.049654,3.40155 -1.108624,3.472313 -0.107128,0.133664 -0.270277,0.213273 -0.440305,0.213273"
       id="path129-8"
       clip-path="url(#clipPath138)" /><path
       style="clip-rule:nonzero;fill:#231f1f;fill-opacity:1;fill-rule:nonzero;stroke:none;stroke-width:0.251603"
       d="m 47.998976,15.19283 -20.804394,5.449754 5.876296,3.973553 14.931046,-0.869798 15.779225,0.869798 5.026156,-3.973553 -20.808329,-5.449754"
       id="path131-2"
       clip-path="url(#clipPath137)" /><path
       style="clip-rule:nonzero;fill:#231f1f;fill-opacity:1;fill-rule:nonzero;stroke:none;stroke-width:0.251603"
       d="m 28.549892,20.873547 4.678238,3.165673 14.739395,-0.85997 c 0.02063,-0.0029 0.04128,-0.0029 0.06388,0 l 15.565951,0.858004 3.962742,-3.134222 -19.561127,-5.123456 z m 35.231257,4.310662 h -0.03145 L 48.001924,24.31441 33.103312,25.184209 c -0.125801,0.0069 -0.247673,-0.02752 -0.352832,-0.0973 l -5.876299,-3.974537 c -0.183789,-0.124818 -0.279123,-0.345953 -0.240792,-0.566106 0.03833,-0.219169 0.199514,-0.396078 0.415734,-0.453081 l 20.80538,-5.449754 c 0.09533,-0.02457 0.194597,-0.02457 0.287967,0 l 20.807345,5.449754 c 0.206392,0.05504 0.367574,0.222118 0.410819,0.433425 0.04619,0.210324 -0.03342,0.427528 -0.204427,0.561192 l -5.022226,3.973554 c -0.100248,0.07961 -0.225066,0.122852 -0.352832,0.122852"
       id="path133-2"
       clip-path="url(#clipPath144)" /><path
       style="clip-rule:nonzero;fill:#231f1f;fill-opacity:1;fill-rule:nonzero;stroke:none;stroke-width:0.251603"
       d="m 63.742817,24.616137 c 0,0 -4.312626,-2.157296 -15.336952,-2.157296 -10.21841,0 -15.334987,2.157296 -15.334987,2.157296 V 40.852371 H 63.742817 V 24.616137"
       id="path135-0"
       clip-path="url(#clipPath122)" /><path
       style="clip-rule:nonzero;fill:#231f1f;fill-opacity:1;fill-rule:nonzero;stroke:none;stroke-width:0.251603"
       d="M 33.638951,40.285284 H 63.17573 V 24.991575 c -1.167595,-0.463892 -5.662044,-1.964663 -14.769865,-1.964663 -8.497488,0 -13.463692,1.523376 -14.766914,1.982355 z m 30.103866,1.135161 H 33.070878 c -0.31352,0 -0.567087,-0.254552 -0.567087,-0.568074 V 24.616137 c 0,-0.227032 0.135629,-0.433425 0.346935,-0.521879 0.211308,-0.0914 5.338694,-2.202506 15.555139,-2.202506 11.031205,0 15.409683,2.127811 15.591504,2.218231 0.190667,0.09533 0.313522,0.290916 0.313522,0.506154 v 16.236234 c 0,0.313522 -0.254552,0.568074 -0.568074,0.568074"
       id="path137-1"
       clip-path="url(#clipPath125)" /><path
       style="clip-rule:nonzero;fill:#ffffff;fill-opacity:1;fill-rule:nonzero;stroke:none;stroke-width:0.251603"
       d="M 62.694145,69.82796 V 91.605349 H 55.711189 V 65.23916 c 1.301256,0.514998 2.538631,1.162678 3.696396,1.923384 1.185285,0.776428 2.28703,1.670798 3.28656,2.665416"
       id="path139-6"
       clip-path="url(#clipPath132)" /><path
       style="clip-rule:nonzero;fill:#231f1f;fill-opacity:1;fill-rule:nonzero;stroke:none;stroke-width:0.251603"
       d="m 56.27926,91.037278 h 5.846814 V 70.066786 C 61.19534,69.162589 60.178118,68.345862 59.097014,67.637248 58.197731,67.04657 57.253237,66.528623 56.27926,66.095198 Z m 6.414885,1.136145 h -6.982956 c -0.313522,0 -0.568071,-0.254552 -0.568071,-0.568074 V 65.23916 c 0,-0.188702 0.09337,-0.363647 0.24767,-0.46979 0.157252,-0.105163 0.3548,-0.127767 0.528758,-0.057 1.321898,0.521876 2.60055,1.18725 3.799596,1.975473 1.209854,0.792156 2.345996,1.714043 3.374029,2.738144 0.107128,0.107128 0.168063,0.250619 0.168063,0.401976 v 21.777389 c 0,0.313522 -0.253567,0.568074 -0.567089,0.568074"
       id="path141-4"
       clip-path="url(#clipPath136)" /><path
       style="clip-rule:nonzero;fill:#ffffff;fill-opacity:1;fill-rule:nonzero;stroke:none;stroke-width:0.251603"
       d="m 33.289065,69.82796 v 21.777389 h 6.982958 V 65.23916 c -1.301258,0.514998 -2.538633,1.162678 -3.697382,1.923384 -1.185282,0.776428 -2.286044,1.670798 -3.285576,2.665416"
       id="path143-8"
       clip-path="url(#clipPath133)" /><path
       style="clip-rule:nonzero;fill:#231f1f;fill-opacity:1;fill-rule:nonzero;stroke:none;stroke-width:0.251603"
       d="m 33.857136,91.037278 h 5.846814 v -24.94208 c -0.973977,0.433425 -1.918471,0.951372 -2.817751,1.54205 -1.081107,0.708614 -2.100294,1.523373 -3.029063,2.429538 z m 6.414887,1.136145 h -6.982958 c -0.313519,0 -0.568071,-0.254552 -0.568071,-0.568074 V 69.82796 c 0,-0.151357 0.06192,-0.294848 0.166096,-0.401976 1.030982,-1.024101 2.166143,-1.945988 3.376981,-2.738144 1.199042,-0.788223 2.477697,-1.453597 3.798611,-1.975473 0.174942,-0.07076 0.372488,-0.04816 0.52974,0.057 0.154305,0.106143 0.246689,0.281088 0.246689,0.46979 v 26.366189 c 0,0.313522 -0.253568,0.568074 -0.567088,0.568074"
       id="path145-6"
       clip-path="url(#clipPath140)" /></g></svg>
