<svg xmlns="http://www.w3.org/2000/svg" xmlns:xlink="http://www.w3.org/1999/xlink" width="512" zoomAndPan="magnify" viewBox="0 0 384 95.999999" height="128" preserveAspectRatio="xMidYMid meet" version="1.0"><defs><g/><clipPath id="d0a21df885"><path d="M 24 0 L 360 0 C 373.253906 0 384 10.746094 384 24 L 384 72 C 384 85.253906 373.253906 96 360 96 L 24 96 C 10.746094 96 0 85.253906 0 72 L 0 24 C 0 10.746094 10.746094 0 24 0 Z M 24 0 " clip-rule="nonzero"/></clipPath><clipPath id="4184829883"><path d="M 0 0 L 384 0 L 384 96 L 0 96 Z M 0 0 " clip-rule="nonzero"/></clipPath><clipPath id="6038911e3e"><path d="M 24 0 L 360 0 C 373.253906 0 384 10.746094 384 24 L 384 72 C 384 85.253906 373.253906 96 360 96 L 24 96 C 10.746094 96 0 85.253906 0 72 L 0 24 C 0 10.746094 10.746094 0 24 0 Z M 24 0 " clip-rule="nonzero"/></clipPath><clipPath id="50c431c229"><rect x="0" width="384" y="0" height="96"/></clipPath></defs><g clip-path="url(#d0a21df885)"><g transform="matrix(1, 0, 0, 1, 0, -0.000000000000008101)"><g clip-path="url(#50c431c229)"><g clip-path="url(#4184829883)"><g clip-path="url(#6038911e3e)"><rect x="-84.48" width="552.96" fill="#ffbd59" height="138.239999" y="-21.12" fill-opacity="1"/></g></g></g></g></g><g fill="#ffffff" fill-opacity="1"><g transform="translate(13.646486, 61.499999)"><g><path d="M 1.890625 -29.359375 L 9.328125 -29.359375 L 9.328125 -6.265625 L 22.09375 -6.265625 L 22.09375 0 L 1.890625 0 Z M 1.890625 -29.359375 "/></g></g></g><g fill="#ffffff" fill-opacity="1"><g transform="translate(35.73848, 61.499999)"><g><path d="M 9.484375 0.625 C 6.972656 0.625 4.9375 0.0117188 3.375 -1.203125 C 1.820312 -2.421875 1.046875 -4.117188 1.046875 -6.296875 C 1.046875 -8.566406 1.796875 -10.3125 3.296875 -11.53125 C 4.796875 -12.75 6.945312 -13.359375 9.75 -13.359375 C 10.832031 -13.359375 11.921875 -13.238281 13.015625 -13 C 14.109375 -12.757812 15.046875 -12.441406 15.828125 -12.046875 L 15.828125 -12.46875 C 15.828125 -14.625 14.066406 -15.703125 10.546875 -15.703125 C 8.078125 -15.703125 5.820312 -15.226562 3.78125 -14.28125 L 3.78125 -19.359375 C 4.675781 -19.773438 5.847656 -20.117188 7.296875 -20.390625 C 8.753906 -20.660156 10.269531 -20.796875 11.84375 -20.796875 C 15.59375 -20.796875 18.425781 -20.046875 20.34375 -18.546875 C 22.257812 -17.046875 23.21875 -14.953125 23.21875 -12.265625 L 23.21875 0 L 16.296875 0 L 16.296875 -1.71875 C 15.535156 -0.988281 14.582031 -0.414062 13.4375 0 C 12.289062 0.414062 10.972656 0.625 9.484375 0.625 Z M 11.671875 -3.90625 C 12.546875 -3.90625 13.359375 -4.078125 14.109375 -4.421875 C 14.867188 -4.773438 15.441406 -5.234375 15.828125 -5.796875 L 15.828125 -7.5625 C 14.628906 -8.375 13.257812 -8.78125 11.71875 -8.78125 C 10.738281 -8.78125 9.984375 -8.566406 9.453125 -8.140625 C 8.921875 -7.722656 8.65625 -7.109375 8.65625 -6.296875 C 8.65625 -5.546875 8.910156 -4.957031 9.421875 -4.53125 C 9.941406 -4.113281 10.691406 -3.90625 11.671875 -3.90625 Z M 11.671875 -3.90625 "/></g></g></g><g fill="#ffffff" fill-opacity="1"><g transform="translate(60.644474, 61.499999)"><g><path d="M 10 0.625 C 7.226562 0.625 5.148438 -0.140625 3.765625 -1.671875 C 2.378906 -3.210938 1.6875 -5.242188 1.6875 -7.765625 L 1.6875 -20.15625 L 9.078125 -20.15625 L 9.078125 -8.609375 C 9.078125 -6.285156 10.125 -5.125 12.21875 -5.125 C 13.175781 -5.125 14.046875 -5.347656 14.828125 -5.796875 C 15.609375 -6.242188 16.253906 -6.898438 16.765625 -7.765625 L 16.765625 -20.15625 L 24.15625 -20.15625 L 24.15625 0 L 17.015625 0 L 17.015625 -2.1875 C 16.140625 -1.257812 15.085938 -0.554688 13.859375 -0.078125 C 12.628906 0.390625 11.34375 0.625 10 0.625 Z M 10 0.625 "/></g></g><g transform="translate(86.684472, 61.499999)"><g><path d="M 1.890625 -20.15625 L 9.03125 -20.15625 L 9.03125 -17.9375 C 9.894531 -18.882812 10.941406 -19.597656 12.171875 -20.078125 C 13.410156 -20.554688 14.703125 -20.796875 16.046875 -20.796875 C 18.867188 -20.796875 20.957031 -20.054688 22.3125 -18.578125 C 23.675781 -17.109375 24.359375 -15.113281 24.359375 -12.59375 L 24.359375 0 L 16.96875 0 L 16.96875 -11.640625 C 16.96875 -13.898438 15.929688 -15.03125 13.859375 -15.03125 C 12.910156 -15.03125 12.039062 -14.8125 11.25 -14.375 C 10.46875 -13.945312 9.8125 -13.285156 9.28125 -12.390625 L 9.28125 0 L 1.890625 0 Z M 1.890625 -20.15625 "/></g></g><g transform="translate(112.724471, 61.499999)"><g><path d="M 13.0625 0.625 C 9.363281 0.625 6.4375 -0.296875 4.28125 -2.140625 C 2.125 -3.984375 1.046875 -6.613281 1.046875 -10.03125 C 1.046875 -13.445312 2.128906 -16.09375 4.296875 -17.96875 C 6.472656 -19.851562 9.410156 -20.796875 13.109375 -20.796875 C 14.753906 -20.796875 16.296875 -20.632812 17.734375 -20.3125 C 19.179688 -19.988281 20.382812 -19.53125 21.34375 -18.9375 L 21.34375 -13.1875 C 19.632812 -14.414062 17.378906 -15.03125 14.578125 -15.03125 C 12.785156 -15.03125 11.347656 -14.617188 10.265625 -13.796875 C 9.191406 -12.972656 8.65625 -11.71875 8.65625 -10.03125 C 8.65625 -8.320312 9.1875 -7.066406 10.25 -6.265625 C 11.3125 -5.472656 12.738281 -5.078125 14.53125 -5.078125 C 17.25 -5.078125 19.601562 -5.722656 21.59375 -7.015625 L 21.59375 -1.296875 C 19.457031 -0.015625 16.613281 0.625 13.0625 0.625 Z M 13.0625 0.625 "/></g></g></g><g fill="#ffffff" fill-opacity="1"><g transform="translate(135.362464, 61.499999)"><g><path d="M 1.890625 -31.03125 L 9.28125 -31.03125 L 9.28125 -18.109375 C 10.175781 -19.003906 11.203125 -19.675781 12.359375 -20.125 C 13.523438 -20.570312 14.753906 -20.796875 16.046875 -20.796875 C 18.867188 -20.796875 20.957031 -20.054688 22.3125 -18.578125 C 23.675781 -17.109375 24.359375 -15.113281 24.359375 -12.59375 L 24.359375 0 L 16.96875 0 L 16.96875 -11.640625 C 16.96875 -13.898438 15.929688 -15.03125 13.859375 -15.03125 C 12.910156 -15.03125 12.039062 -14.8125 11.25 -14.375 C 10.46875 -13.945312 9.8125 -13.285156 9.28125 -12.390625 L 9.28125 0 L 1.890625 0 Z M 1.890625 -31.03125 "/></g></g><g transform="translate(161.402463, 61.499999)"><g/></g></g><g fill="#ffffff" fill-opacity="1"><g transform="translate(175.682459, 61.499999)"><g><path d="M 1.046875 -29.359375 L 8.6875 -29.359375 L 13.609375 -11.96875 L 18.359375 -29.359375 L 23.640625 -29.359375 L 28.09375 -11.921875 L 32.96875 -29.359375 L 40.609375 -29.359375 L 32.515625 0 L 25.65625 0 L 20.828125 -17.046875 L 16.046875 0 L 9.15625 0 Z M 1.046875 -29.359375 "/></g></g></g><g fill="#ffffff" fill-opacity="1"><g transform="translate(214.196449, 61.499999)"><g><path d="M 13.734375 0.625 C 9.785156 0.625 6.679688 -0.296875 4.421875 -2.140625 C 2.171875 -3.984375 1.046875 -6.601562 1.046875 -10 C 1.046875 -13.332031 2.046875 -15.960938 4.046875 -17.890625 C 6.054688 -19.828125 8.945312 -20.796875 12.71875 -20.796875 C 15.132812 -20.796875 17.203125 -20.335938 18.921875 -19.421875 C 20.640625 -18.515625 21.941406 -17.269531 22.828125 -15.6875 C 23.710938 -14.101562 24.15625 -12.316406 24.15625 -10.328125 L 24.15625 -7.609375 L 8.0625 -7.609375 C 8.34375 -6.484375 9.039062 -5.664062 10.15625 -5.15625 C 11.28125 -4.65625 12.804688 -4.40625 14.734375 -4.40625 C 16.054688 -4.40625 17.410156 -4.515625 18.796875 -4.734375 C 20.179688 -4.960938 21.378906 -5.273438 22.390625 -5.671875 L 22.390625 -0.796875 C 21.347656 -0.378906 20.050781 -0.0390625 18.5 0.21875 C 16.945312 0.488281 15.359375 0.625 13.734375 0.625 Z M 17.171875 -12.21875 C 17.066406 -13.3125 16.617188 -14.164062 15.828125 -14.78125 C 15.046875 -15.394531 13.96875 -15.703125 12.59375 -15.703125 C 11.25 -15.703125 10.1875 -15.382812 9.40625 -14.75 C 8.625 -14.125 8.175781 -13.28125 8.0625 -12.21875 Z M 17.171875 -12.21875 "/></g></g></g><g fill="#ffffff" fill-opacity="1"><g transform="translate(239.396452, 61.499999)"><g><path d="M 16.171875 0.625 C 13.285156 0.625 10.90625 -0.253906 9.03125 -2.015625 L 9.03125 0 L 1.890625 0 L 1.890625 -31.03125 L 9.28125 -31.03125 L 9.28125 -18.515625 C 10.09375 -19.222656 11.109375 -19.78125 12.328125 -20.1875 C 13.546875 -20.59375 14.828125 -20.796875 16.171875 -20.796875 C 18.296875 -20.796875 20.160156 -20.347656 21.765625 -19.453125 C 23.378906 -18.554688 24.632812 -17.285156 25.53125 -15.640625 C 26.425781 -14.003906 26.875 -12.132812 26.875 -10.03125 C 26.875 -7.90625 26.425781 -6.035156 25.53125 -4.421875 C 24.632812 -2.816406 23.375 -1.570312 21.75 -0.6875 C 20.125 0.183594 18.265625 0.625 16.171875 0.625 Z M 14.234375 -5.078125 C 15.742188 -5.078125 16.960938 -5.519531 17.890625 -6.40625 C 18.816406 -7.289062 19.28125 -8.5 19.28125 -10.03125 C 19.28125 -11.570312 18.816406 -12.789062 17.890625 -13.6875 C 16.960938 -14.582031 15.742188 -15.03125 14.234375 -15.03125 C 13.117188 -15.03125 12.113281 -14.742188 11.21875 -14.171875 C 10.320312 -13.597656 9.675781 -12.820312 9.28125 -11.84375 L 9.28125 -8.28125 C 9.675781 -7.289062 10.320312 -6.507812 11.21875 -5.9375 C 12.113281 -5.363281 13.117188 -5.078125 14.234375 -5.078125 Z M 14.234375 -5.078125 "/></g></g></g><g fill="#ffffff" fill-opacity="1"><g transform="translate(267.326443, 61.499999)"><g/></g></g><g fill="#ffffff" fill-opacity="1"><g transform="translate(281.606449, 61.499999)"><g><path d="M 12.8125 -29.359375 L 20.125 -29.359375 L 31.84375 0 L 24.234375 0 L 21.875 -6.046875 L 11.046875 -6.046875 L 8.6875 0 L 1.046875 0 Z M 20.03125 -11.765625 L 16.46875 -21.625 L 12.859375 -11.765625 Z M 20.03125 -11.765625 "/></g></g></g><g fill="#ffffff" fill-opacity="1"><g transform="translate(314.492418, 61.499999)"><g><path d="M 1.890625 -20.15625 L 9.03125 -20.15625 L 9.03125 -18.140625 C 10.90625 -19.910156 13.285156 -20.796875 16.171875 -20.796875 C 18.265625 -20.796875 20.125 -20.351562 21.75 -19.46875 C 23.375 -18.582031 24.632812 -17.332031 25.53125 -15.71875 C 26.425781 -14.113281 26.875 -12.25 26.875 -10.125 C 26.875 -8.019531 26.425781 -6.148438 25.53125 -4.515625 C 24.632812 -2.878906 23.378906 -1.613281 21.765625 -0.71875 C 20.160156 0.175781 18.296875 0.625 16.171875 0.625 C 14.828125 0.625 13.546875 0.421875 12.328125 0.015625 C 11.109375 -0.390625 10.09375 -0.941406 9.28125 -1.640625 L 9.28125 9.203125 L 1.890625 9.203125 Z M 14.234375 -5.125 C 15.742188 -5.125 16.960938 -5.570312 17.890625 -6.46875 C 18.816406 -7.363281 19.28125 -8.582031 19.28125 -10.125 C 19.28125 -11.664062 18.816406 -12.875 17.890625 -13.75 C 16.960938 -14.632812 15.742188 -15.078125 14.234375 -15.078125 C 13.117188 -15.078125 12.113281 -14.789062 11.21875 -14.21875 C 10.320312 -13.644531 9.675781 -12.867188 9.28125 -11.890625 L 9.28125 -8.3125 C 9.675781 -7.332031 10.320312 -6.554688 11.21875 -5.984375 C 12.113281 -5.410156 13.117188 -5.125 14.234375 -5.125 Z M 14.234375 -5.125 "/></g></g></g><g fill="#ffffff" fill-opacity="1"><g transform="translate(342.422409, 61.499999)"><g><path d="M 1.890625 -20.15625 L 9.03125 -20.15625 L 9.03125 -18.140625 C 10.90625 -19.910156 13.285156 -20.796875 16.171875 -20.796875 C 18.265625 -20.796875 20.125 -20.351562 21.75 -19.46875 C 23.375 -18.582031 24.632812 -17.332031 25.53125 -15.71875 C 26.425781 -14.113281 26.875 -12.25 26.875 -10.125 C 26.875 -8.019531 26.425781 -6.148438 25.53125 -4.515625 C 24.632812 -2.878906 23.378906 -1.613281 21.765625 -0.71875 C 20.160156 0.175781 18.296875 0.625 16.171875 0.625 C 14.828125 0.625 13.546875 0.421875 12.328125 0.015625 C 11.109375 -0.390625 10.09375 -0.941406 9.28125 -1.640625 L 9.28125 9.203125 L 1.890625 9.203125 Z M 14.234375 -5.125 C 15.742188 -5.125 16.960938 -5.570312 17.890625 -6.46875 C 18.816406 -7.363281 19.28125 -8.582031 19.28125 -10.125 C 19.28125 -11.664062 18.816406 -12.875 17.890625 -13.75 C 16.960938 -14.632812 15.742188 -15.078125 14.234375 -15.078125 C 13.117188 -15.078125 12.113281 -14.789062 11.21875 -14.21875 C 10.320312 -13.644531 9.675781 -12.867188 9.28125 -11.890625 L 9.28125 -8.3125 C 9.675781 -7.332031 10.320312 -6.554688 11.21875 -5.984375 C 12.113281 -5.410156 13.117188 -5.125 14.234375 -5.125 Z M 14.234375 -5.125 "/></g></g></g></svg>